<svg width="923" height="425" viewBox="0 0 923 425" fill="none" xmlns="http://www.w3.org/2000/svg">
<mask id="path-1-outside-1_779_1047" maskUnits="userSpaceOnUse" x="104" y="85.7031" width="623" height="74" fill="black">
<rect fill="white" x="104" y="85.7031" width="623" height="74"/>
<path d="M177.93 138.482V155.703H143.681C131.974 155.703 123.363 151.64 117.365 145.061C112.14 139.352 108.948 131.612 108.948 123.002C108.948 113.52 113.011 104.909 119.493 98.911C125.298 93.5898 133.135 90.3003 143.681 90.3003H177.93V107.618H143.681C137.779 107.618 134.103 109.263 131.297 111.875C128.298 114.681 126.459 118.745 126.459 123.098C126.459 127.065 128.007 130.742 130.523 133.451C133.329 136.547 137.489 138.482 143.681 138.482H177.93ZM230.832 155.703H217.093C205.387 155.703 196.776 151.64 190.778 145.061C185.553 139.352 182.36 131.612 182.36 123.002C182.36 113.52 186.424 104.909 192.906 98.911C198.711 93.5898 206.548 90.3003 217.093 90.3003H230.832C241.378 90.3003 249.214 93.5898 255.019 98.911C261.502 104.909 265.565 113.52 265.565 123.002C265.565 131.612 262.372 139.352 257.148 145.061C251.149 151.64 242.539 155.703 230.832 155.703ZM230.832 107.618H217.093C211.192 107.618 207.515 109.263 204.709 111.875C201.71 114.681 199.872 118.745 199.872 123.098C199.872 127.065 201.42 130.742 203.935 133.451C206.741 136.547 210.901 138.482 217.093 138.482H230.832C237.024 138.482 241.184 136.547 243.99 133.451C246.505 130.742 248.053 127.065 248.053 123.098C248.053 118.745 246.215 114.681 243.216 111.875C240.41 109.263 236.734 107.618 230.832 107.618ZM320.968 155.703H307.229C295.523 155.703 286.912 151.64 280.914 145.061C275.689 139.352 272.496 131.612 272.496 123.002C272.496 113.52 276.56 104.909 283.042 98.911C288.847 93.5898 296.684 90.3003 307.229 90.3003H320.968C331.514 90.3003 339.35 93.5898 345.155 98.911C351.638 104.909 355.701 113.52 355.701 123.002C355.701 131.612 352.508 139.352 347.284 145.061C341.285 151.64 332.675 155.703 320.968 155.703ZM320.968 107.618H307.229C301.328 107.618 297.651 109.263 294.845 111.875C291.846 114.681 290.008 118.745 290.008 123.098C290.008 127.065 291.556 130.742 294.071 133.451C296.877 136.547 301.037 138.482 307.229 138.482H320.968C327.16 138.482 331.32 136.547 334.126 133.451C336.641 130.742 338.189 127.065 338.189 123.098C338.189 118.745 336.351 114.681 333.352 111.875C330.546 109.263 326.87 107.618 320.968 107.618ZM364.084 90.3003H381.789V117.1L411.588 93.0093C412.555 92.2353 413.619 91.171 414.297 90.3003H438.774C438.387 90.8808 437.613 91.558 437.033 92.0418L401.042 119.906C400.655 120.196 400.461 120.486 400.461 120.97C400.461 121.454 400.558 121.647 401.042 122.034L439.645 153.284C440.516 154.058 441.387 154.832 442.161 155.703H416.038C415.264 154.832 414.297 153.962 413.136 152.994L381.789 126.775V155.703H364.084V90.3003ZM534.403 155.703H520.665C508.958 155.703 500.347 151.64 494.349 145.061C489.124 139.352 485.932 131.612 485.932 123.002C485.932 113.52 489.995 104.909 496.477 98.911C502.282 93.5898 510.119 90.3003 520.665 90.3003H534.403C544.949 90.3003 552.786 93.5898 558.591 98.911C565.073 104.909 569.136 113.52 569.136 123.002C569.136 131.612 565.944 139.352 560.719 145.061C554.721 151.64 546.11 155.703 534.403 155.703ZM534.403 107.618H520.665C514.763 107.618 511.086 109.263 508.281 111.875C505.281 114.681 503.443 118.745 503.443 123.098C503.443 127.065 504.991 130.742 507.507 133.451C510.312 136.547 514.473 138.482 520.665 138.482H534.403C540.595 138.482 544.755 136.547 547.561 133.451C550.077 130.742 551.625 127.065 551.625 123.098C551.625 118.745 549.786 114.681 546.787 111.875C543.981 109.263 540.305 107.618 534.403 107.618ZM589.225 90.3003H646.211V107.618H597.643C595.804 107.618 594.934 108.586 594.934 110.521V117.584H645.921V133.838H594.934V155.703H577.422V102.297C577.422 94.1703 581.389 90.3003 589.225 90.3003ZM665.662 90.3003H722.647V107.618H674.079C672.241 107.618 671.37 108.586 671.37 110.521V117.584H722.357V133.838H671.37V155.703H653.858V102.297C653.858 94.1703 657.825 90.3003 665.662 90.3003Z"/>
</mask>
<path d="M177.93 138.482V155.703H143.681C131.974 155.703 123.363 151.64 117.365 145.061C112.14 139.352 108.948 131.612 108.948 123.002C108.948 113.52 113.011 104.909 119.493 98.911C125.298 93.5898 133.135 90.3003 143.681 90.3003H177.93V107.618H143.681C137.779 107.618 134.103 109.263 131.297 111.875C128.298 114.681 126.459 118.745 126.459 123.098C126.459 127.065 128.007 130.742 130.523 133.451C133.329 136.547 137.489 138.482 143.681 138.482H177.93ZM230.832 155.703H217.093C205.387 155.703 196.776 151.64 190.778 145.061C185.553 139.352 182.36 131.612 182.36 123.002C182.36 113.52 186.424 104.909 192.906 98.911C198.711 93.5898 206.548 90.3003 217.093 90.3003H230.832C241.378 90.3003 249.214 93.5898 255.019 98.911C261.502 104.909 265.565 113.52 265.565 123.002C265.565 131.612 262.372 139.352 257.148 145.061C251.149 151.64 242.539 155.703 230.832 155.703ZM230.832 107.618H217.093C211.192 107.618 207.515 109.263 204.709 111.875C201.71 114.681 199.872 118.745 199.872 123.098C199.872 127.065 201.42 130.742 203.935 133.451C206.741 136.547 210.901 138.482 217.093 138.482H230.832C237.024 138.482 241.184 136.547 243.99 133.451C246.505 130.742 248.053 127.065 248.053 123.098C248.053 118.745 246.215 114.681 243.216 111.875C240.41 109.263 236.734 107.618 230.832 107.618ZM320.968 155.703H307.229C295.523 155.703 286.912 151.64 280.914 145.061C275.689 139.352 272.496 131.612 272.496 123.002C272.496 113.52 276.56 104.909 283.042 98.911C288.847 93.5898 296.684 90.3003 307.229 90.3003H320.968C331.514 90.3003 339.35 93.5898 345.155 98.911C351.638 104.909 355.701 113.52 355.701 123.002C355.701 131.612 352.508 139.352 347.284 145.061C341.285 151.64 332.675 155.703 320.968 155.703ZM320.968 107.618H307.229C301.328 107.618 297.651 109.263 294.845 111.875C291.846 114.681 290.008 118.745 290.008 123.098C290.008 127.065 291.556 130.742 294.071 133.451C296.877 136.547 301.037 138.482 307.229 138.482H320.968C327.16 138.482 331.32 136.547 334.126 133.451C336.641 130.742 338.189 127.065 338.189 123.098C338.189 118.745 336.351 114.681 333.352 111.875C330.546 109.263 326.87 107.618 320.968 107.618ZM364.084 90.3003H381.789V117.1L411.588 93.0093C412.555 92.2353 413.619 91.171 414.297 90.3003H438.774C438.387 90.8808 437.613 91.558 437.033 92.0418L401.042 119.906C400.655 120.196 400.461 120.486 400.461 120.97C400.461 121.454 400.558 121.647 401.042 122.034L439.645 153.284C440.516 154.058 441.387 154.832 442.161 155.703H416.038C415.264 154.832 414.297 153.962 413.136 152.994L381.789 126.775V155.703H364.084V90.3003ZM534.403 155.703H520.665C508.958 155.703 500.347 151.64 494.349 145.061C489.124 139.352 485.932 131.612 485.932 123.002C485.932 113.52 489.995 104.909 496.477 98.911C502.282 93.5898 510.119 90.3003 520.665 90.3003H534.403C544.949 90.3003 552.786 93.5898 558.591 98.911C565.073 104.909 569.136 113.52 569.136 123.002C569.136 131.612 565.944 139.352 560.719 145.061C554.721 151.64 546.11 155.703 534.403 155.703ZM534.403 107.618H520.665C514.763 107.618 511.086 109.263 508.281 111.875C505.281 114.681 503.443 118.745 503.443 123.098C503.443 127.065 504.991 130.742 507.507 133.451C510.312 136.547 514.473 138.482 520.665 138.482H534.403C540.595 138.482 544.755 136.547 547.561 133.451C550.077 130.742 551.625 127.065 551.625 123.098C551.625 118.745 549.786 114.681 546.787 111.875C543.981 109.263 540.305 107.618 534.403 107.618ZM589.225 90.3003H646.211V107.618H597.643C595.804 107.618 594.934 108.586 594.934 110.521V117.584H645.921V133.838H594.934V155.703H577.422V102.297C577.422 94.1703 581.389 90.3003 589.225 90.3003ZM665.662 90.3003H722.647V107.618H674.079C672.241 107.618 671.37 108.586 671.37 110.521V117.584H722.357V133.838H671.37V155.703H653.858V102.297C653.858 94.1703 657.825 90.3003 665.662 90.3003Z" fill="#125128"/>
<path d="M177.93 138.482H181.879V134.533H177.93V138.482ZM177.93 155.703V159.652H181.879V155.703H177.93ZM117.365 145.061L120.283 142.4L120.278 142.394L117.365 145.061ZM119.493 98.911L116.825 96L116.818 96.0063L116.811 96.0126L119.493 98.911ZM177.93 90.3003H181.879V86.3513H177.93V90.3003ZM177.93 107.618V111.567H181.879V107.618H177.93ZM131.297 111.875L128.606 108.985L128.599 108.992L131.297 111.875ZM130.523 133.451L133.449 130.799L133.433 130.781L133.417 130.764L130.523 133.451ZM177.93 138.482H173.981V155.703H177.93H181.879V138.482H177.93ZM177.93 155.703V151.754H143.681V155.703V159.652H177.93V155.703ZM143.681 155.703V151.754C132.984 151.754 125.468 148.086 120.283 142.4L117.365 145.061L114.447 147.721C121.259 155.193 130.965 159.652 143.681 159.652V155.703ZM117.365 145.061L120.278 142.394C115.716 137.41 112.897 130.62 112.897 123.002H108.948H104.999C104.999 132.605 108.564 141.294 114.452 147.727L117.365 145.061ZM108.948 123.002H112.897C112.897 114.667 116.467 107.092 122.175 101.809L119.493 98.911L116.811 96.0126C109.556 102.727 104.999 112.374 104.999 123.002H108.948ZM119.493 98.911L122.162 101.822C127.176 97.2252 134.036 94.2493 143.681 94.2493V90.3003V86.3513C132.235 86.3513 123.42 89.9543 116.825 96L119.493 98.911ZM143.681 90.3003V94.2493H177.93V90.3003V86.3513H143.681V90.3003ZM177.93 90.3003H173.981V107.618H177.93H181.879V90.3003H177.93ZM177.93 107.618V103.67H143.681V107.618V111.567H177.93V107.618ZM143.681 107.618V103.67C136.913 103.67 132.234 105.608 128.606 108.985L131.297 111.875L133.988 114.766C135.971 112.919 138.645 111.567 143.681 111.567V107.618ZM131.297 111.875L128.599 108.992C124.812 112.535 122.51 117.638 122.51 123.098H126.459H130.408C130.408 119.851 131.783 116.828 133.995 114.759L131.297 111.875ZM126.459 123.098H122.51C122.51 128.097 124.46 132.725 127.629 136.138L130.523 133.451L133.417 130.764C131.555 128.759 130.408 126.033 130.408 123.098H126.459ZM130.523 133.451L127.597 136.102C131.28 140.167 136.583 142.431 143.681 142.431V138.482V134.533C138.395 134.533 135.377 132.926 133.449 130.799L130.523 133.451ZM143.681 138.482V142.431H177.93V138.482V134.533H143.681V138.482ZM190.777 145.061L193.696 142.4L193.691 142.394L190.777 145.061ZM192.906 98.911L190.238 96L190.231 96.0063L190.224 96.0126L192.906 98.911ZM255.019 98.911L257.701 96.0126L257.695 96.0063L257.688 96L255.019 98.911ZM257.148 145.061L254.235 142.394L254.23 142.4L257.148 145.061ZM204.709 111.875L202.019 108.985L202.012 108.992L204.709 111.875ZM203.935 133.451L206.862 130.799L206.846 130.781L206.829 130.764L203.935 133.451ZM243.99 133.451L241.096 130.764L241.08 130.781L241.064 130.799L243.99 133.451ZM243.216 111.875L245.914 108.992L245.907 108.985L243.216 111.875ZM230.832 155.703V151.754H217.093V155.703V159.652H230.832V155.703ZM217.093 155.703V151.754C206.396 151.754 198.88 148.086 193.696 142.4L190.777 145.061L187.859 147.721C194.672 155.193 204.377 159.652 217.093 159.652V155.703ZM190.777 145.061L193.691 142.394C189.129 137.41 186.309 130.62 186.309 123.002H182.36H178.411C178.411 132.605 181.977 141.294 187.864 147.727L190.777 145.061ZM182.36 123.002H186.309C186.309 114.667 189.879 107.092 195.588 101.809L192.906 98.911L190.224 96.0126C182.968 102.727 178.411 112.374 178.411 123.002H182.36ZM192.906 98.911L195.574 101.822C200.589 97.2252 207.448 94.2493 217.093 94.2493V90.3003V86.3513C205.647 86.3513 196.833 89.9543 190.238 96L192.906 98.911ZM217.093 90.3003V94.2493H230.832V90.3003V86.3513H217.093V90.3003ZM230.832 90.3003V94.2493C240.477 94.2493 247.336 97.2252 252.351 101.822L255.019 98.911L257.688 96C251.092 89.9543 242.278 86.3513 230.832 86.3513V90.3003ZM255.019 98.911L252.337 101.809C258.046 107.092 261.616 114.667 261.616 123.002H265.565H269.514C269.514 112.374 264.957 102.727 257.701 96.0126L255.019 98.911ZM265.565 123.002H261.616C261.616 130.62 258.796 137.41 254.235 142.394L257.148 145.061L260.061 147.727C265.948 141.294 269.514 132.605 269.514 123.002H265.565ZM257.148 145.061L254.23 142.4C249.045 148.086 241.529 151.754 230.832 151.754V155.703V159.652C243.548 159.652 253.254 155.193 260.066 147.721L257.148 145.061ZM230.832 107.618V103.67H217.093V107.618V111.567H230.832V107.618ZM217.093 107.618V103.67C210.325 103.67 205.646 105.608 202.019 108.985L204.709 111.875L207.4 114.766C209.384 112.919 212.058 111.567 217.093 111.567V107.618ZM204.709 111.875L202.012 108.992C198.224 112.535 195.923 117.638 195.923 123.098H199.872H203.821C203.821 119.851 205.196 116.828 207.407 114.759L204.709 111.875ZM199.872 123.098H195.923C195.923 128.097 197.872 132.725 201.042 136.138L203.935 133.451L206.829 130.764C204.967 128.759 203.821 126.033 203.821 123.098H199.872ZM203.935 133.451L201.009 136.102C204.693 140.167 209.995 142.431 217.093 142.431V138.482V134.533C211.808 134.533 208.789 132.926 206.862 130.799L203.935 133.451ZM217.093 138.482V142.431H230.832V138.482V134.533H217.093V138.482ZM230.832 138.482V142.431C237.93 142.431 243.232 140.167 246.916 136.102L243.99 133.451L241.064 130.799C239.136 132.926 236.118 134.533 230.832 134.533V138.482ZM243.99 133.451L246.884 136.138C250.053 132.725 252.002 128.097 252.002 123.098H248.053H244.104C244.104 126.033 242.958 128.759 241.096 130.764L243.99 133.451ZM248.053 123.098H252.002C252.002 117.638 249.701 112.535 245.914 108.992L243.216 111.875L240.518 114.759C242.729 116.828 244.104 119.851 244.104 123.098H248.053ZM243.216 111.875L245.907 108.985C242.279 105.608 237.6 103.67 230.832 103.67V107.618V111.567C235.867 111.567 238.541 112.919 240.525 114.766L243.216 111.875ZM280.914 145.061L283.832 142.4L283.827 142.394L280.914 145.061ZM283.042 98.911L280.374 96L280.367 96.0063L280.36 96.0126L283.042 98.911ZM345.155 98.911L347.837 96.0126L347.831 96.0063L347.824 96L345.155 98.911ZM347.284 145.061L344.371 142.394L344.366 142.4L347.284 145.061ZM294.845 111.875L292.155 108.985L292.148 108.992L294.845 111.875ZM294.071 133.451L296.998 130.799L296.982 130.781L296.965 130.764L294.071 133.451ZM334.126 133.451L331.232 130.764L331.216 130.781L331.2 130.799L334.126 133.451ZM333.352 111.875L336.05 108.992L336.043 108.985L333.352 111.875ZM320.968 155.703V151.754H307.229V155.703V159.652H320.968V155.703ZM307.229 155.703V151.754C296.532 151.754 289.016 148.086 283.832 142.4L280.914 145.061L277.995 147.721C284.808 155.193 294.513 159.652 307.229 159.652V155.703ZM280.914 145.061L283.827 142.394C279.265 137.41 276.445 130.62 276.445 123.002H272.496H268.547C268.547 132.605 272.113 141.294 278 147.727L280.914 145.061ZM272.496 123.002H276.445C276.445 114.667 280.015 107.092 285.724 101.809L283.042 98.911L280.36 96.0126C273.104 102.727 268.547 112.374 268.547 123.002H272.496ZM283.042 98.911L285.71 101.822C290.725 97.2252 297.584 94.2493 307.229 94.2493V90.3003V86.3513C295.783 86.3513 286.969 89.9543 280.374 96L283.042 98.911ZM307.229 90.3003V94.2493H320.968V90.3003V86.3513H307.229V90.3003ZM320.968 90.3003V94.2493C330.613 94.2493 337.472 97.2252 342.487 101.822L345.155 98.911L347.824 96C341.228 89.9543 332.414 86.3513 320.968 86.3513V90.3003ZM345.155 98.911L342.473 101.809C348.182 107.092 351.752 114.667 351.752 123.002H355.701H359.65C359.65 112.374 355.093 102.727 347.837 96.0126L345.155 98.911ZM355.701 123.002H351.752C351.752 130.62 348.932 137.41 344.371 142.394L347.284 145.061L350.197 147.727C356.084 141.294 359.65 132.605 359.65 123.002H355.701ZM347.284 145.061L344.366 142.4C339.181 148.086 331.665 151.754 320.968 151.754V155.703V159.652C333.684 159.652 343.39 155.193 350.202 147.721L347.284 145.061ZM320.968 107.618V103.67H307.229V107.618V111.567H320.968V107.618ZM307.229 107.618V103.67C300.461 103.67 295.782 105.608 292.155 108.985L294.845 111.875L297.536 114.766C299.52 112.919 302.194 111.567 307.229 111.567V107.618ZM294.845 111.875L292.148 108.992C288.36 112.535 286.059 117.638 286.059 123.098H290.008H293.957C293.957 119.851 295.332 116.828 297.543 114.759L294.845 111.875ZM290.008 123.098H286.059C286.059 128.097 288.008 132.725 291.178 136.138L294.071 133.451L296.965 130.764C295.104 128.759 293.957 126.033 293.957 123.098H290.008ZM294.071 133.451L291.145 136.102C294.829 140.167 300.131 142.431 307.229 142.431V138.482V134.533C301.944 134.533 298.925 132.926 296.998 130.799L294.071 133.451ZM307.229 138.482V142.431H320.968V138.482V134.533H307.229V138.482ZM320.968 138.482V142.431C328.066 142.431 333.368 140.167 337.052 136.102L334.126 133.451L331.2 130.799C329.272 132.926 326.254 134.533 320.968 134.533V138.482ZM334.126 133.451L337.02 136.138C340.189 132.725 342.138 128.097 342.138 123.098H338.189H334.24C334.24 126.033 333.094 128.759 331.232 130.764L334.126 133.451ZM338.189 123.098H342.138C342.138 117.638 339.837 112.535 336.05 108.992L333.352 111.875L330.654 114.759C332.865 116.828 334.24 119.851 334.24 123.098H338.189ZM333.352 111.875L336.043 108.985C332.415 105.608 327.736 103.67 320.968 103.67V107.618V111.567C326.003 111.567 328.677 112.919 330.661 114.766L333.352 111.875ZM364.084 90.3003V86.3513H360.135V90.3003H364.084ZM381.789 90.3003H385.738V86.3513H381.789V90.3003ZM381.789 117.1H377.84V125.371L384.271 120.171L381.789 117.1ZM411.588 93.0093L409.121 89.9257L409.113 89.932L409.105 89.9383L411.588 93.0093ZM414.297 90.3003V86.3513H412.365L411.18 87.8759L414.297 90.3003ZM438.774 90.3003L442.06 92.4908L446.153 86.3513H438.774V90.3003ZM437.033 92.0418L439.45 95.1643L439.506 95.1209L439.561 95.0755L437.033 92.0418ZM401.042 119.906L403.411 123.065L403.436 123.047L403.459 123.028L401.042 119.906ZM401.042 122.034L403.527 118.965L403.518 118.958L403.509 118.951L401.042 122.034ZM439.645 153.284L442.269 150.333L442.201 150.272L442.13 150.215L439.645 153.284ZM442.161 155.703V159.652H450.954L445.112 153.08L442.161 155.703ZM416.038 155.703L413.087 158.327L414.265 159.652H416.038V155.703ZM413.136 152.994L410.602 156.023L410.608 156.028L413.136 152.994ZM381.789 126.775L384.322 123.746L377.84 118.324V126.775H381.789ZM381.789 155.703V159.652H385.738V155.703H381.789ZM364.084 155.703H360.135V159.652H364.084V155.703ZM364.084 90.3003V94.2493H381.789V90.3003V86.3513H364.084V90.3003ZM381.789 90.3003H377.84V117.1H381.789H385.738V90.3003H381.789ZM381.789 117.1L384.271 120.171L414.07 96.0802L411.588 93.0093L409.105 89.9383L379.306 114.029L381.789 117.1ZM411.588 93.0093L414.055 96.0929C415.235 95.1488 416.525 93.8678 417.414 92.7247L414.297 90.3003L411.18 87.8759C410.714 88.4743 409.876 89.3218 409.121 89.9257L411.588 93.0093ZM414.297 90.3003V94.2493H438.774V90.3003V86.3513H414.297V90.3003ZM438.774 90.3003L435.489 88.1098C435.524 88.0562 435.529 88.059 435.472 88.1221C435.421 88.1799 435.344 88.2597 435.239 88.3608C435.025 88.5666 434.77 88.7872 434.505 89.0081L437.033 92.0418L439.561 95.0755C440.06 94.6594 441.301 93.6288 442.06 92.4908L438.774 90.3003ZM437.033 92.0418L434.615 88.9192L398.625 116.783L401.042 119.906L403.459 123.028L439.45 95.1643L437.033 92.0418ZM401.042 119.906L398.673 116.747C398.246 117.067 397.642 117.593 397.178 118.406C396.684 119.271 396.512 120.164 396.512 120.97H400.461H404.41C404.41 121.292 404.336 121.799 404.035 122.325C403.764 122.799 403.451 123.035 403.411 123.065L401.042 119.906ZM400.461 120.97H396.512C396.512 121.443 396.546 122.395 397.093 123.411C397.579 124.313 398.269 124.873 398.575 125.118L401.042 122.034L403.509 118.951C403.331 118.808 403.731 119.078 404.047 119.666C404.224 119.995 404.322 120.316 404.37 120.585C404.393 120.708 404.402 120.806 404.406 120.868C404.41 120.93 404.41 120.967 404.41 120.97H400.461ZM401.042 122.034L398.557 125.104L437.16 156.354L439.645 153.284L442.13 150.215L403.527 118.965L401.042 122.034ZM439.645 153.284L437.022 156.236C437.922 157.036 438.615 157.659 439.209 158.327L442.161 155.703L445.112 153.08C444.158 152.006 443.11 151.081 442.269 150.333L439.645 153.284ZM442.161 155.703V151.754H416.038V155.703V159.652H442.161V155.703ZM416.038 155.703L418.99 153.08C418.017 151.985 416.868 150.964 415.664 149.96L413.136 152.994L410.608 156.028C411.725 156.959 412.512 157.68 413.087 158.327L416.038 155.703ZM413.136 152.994L415.669 149.965L384.322 123.746L381.789 126.775L379.255 129.804L410.602 156.023L413.136 152.994ZM381.789 126.775H377.84V155.703H381.789H385.738V126.775H381.789ZM381.789 155.703V151.754H364.084V155.703V159.652H381.789V155.703ZM364.084 155.703H368.033V90.3003H364.084H360.135V155.703H364.084ZM494.349 145.061L497.267 142.4L497.262 142.394L494.349 145.061ZM496.477 98.911L493.809 96L493.802 96.0063L493.795 96.0126L496.477 98.911ZM558.591 98.911L561.273 96.0126L561.266 96.0063L561.259 96L558.591 98.911ZM560.719 145.061L557.806 142.394L557.801 142.4L560.719 145.061ZM508.281 111.875L505.59 108.985L505.583 108.992L508.281 111.875ZM507.507 133.451L510.433 130.799L510.417 130.781L510.401 130.764L507.507 133.451ZM547.561 133.451L544.667 130.764L544.651 130.781L544.635 130.799L547.561 133.451ZM546.787 111.875L549.485 108.992L549.478 108.985L546.787 111.875ZM534.403 155.703V151.754H520.665V155.703V159.652H534.403V155.703ZM520.665 155.703V151.754C509.967 151.754 502.452 148.086 497.267 142.4L494.349 145.061L491.431 147.721C498.243 155.193 507.949 159.652 520.665 159.652V155.703ZM494.349 145.061L497.262 142.394C492.7 137.41 489.88 130.62 489.88 123.002H485.932H481.983C481.983 132.605 485.548 141.294 491.436 147.727L494.349 145.061ZM485.932 123.002H489.88C489.88 114.667 493.45 107.092 499.159 101.809L496.477 98.911L493.795 96.0126C486.54 102.727 481.983 112.374 481.983 123.002H485.932ZM496.477 98.911L499.146 101.822C504.16 97.2252 511.02 94.2493 520.665 94.2493V90.3003V86.3513C509.218 86.3513 500.404 89.9543 493.809 96L496.477 98.911ZM520.665 90.3003V94.2493H534.403V90.3003V86.3513H520.665V90.3003ZM534.403 90.3003V94.2493C544.048 94.2493 550.908 97.2252 555.922 101.822L558.591 98.911L561.259 96C554.664 89.9543 545.849 86.3513 534.403 86.3513V90.3003ZM558.591 98.911L555.909 101.809C561.617 107.092 565.187 114.667 565.187 123.002H569.136H573.085C573.085 112.374 568.528 102.727 561.273 96.0126L558.591 98.911ZM569.136 123.002H565.187C565.187 130.62 562.368 137.41 557.806 142.394L560.719 145.061L563.632 147.727C569.519 141.294 573.085 132.605 573.085 123.002H569.136ZM560.719 145.061L557.801 142.4C552.616 148.086 545.1 151.754 534.403 151.754V155.703V159.652C547.119 159.652 556.825 155.193 563.637 147.721L560.719 145.061ZM534.403 107.618V103.67H520.665V107.618V111.567H534.403V107.618ZM520.665 107.618V103.67C513.896 103.67 509.218 105.608 505.59 108.985L508.281 111.875L510.972 114.766C512.955 112.919 515.629 111.567 520.665 111.567V107.618ZM508.281 111.875L505.583 108.992C501.796 112.535 499.494 117.638 499.494 123.098H503.443H507.392C507.392 119.851 508.767 116.828 510.979 114.759L508.281 111.875ZM503.443 123.098H499.494C499.494 128.097 501.444 132.725 504.613 136.138L507.507 133.451L510.401 130.764C508.539 128.759 507.392 126.033 507.392 123.098H503.443ZM507.507 133.451L504.581 136.102C508.264 140.167 513.566 142.431 520.665 142.431V138.482V134.533C515.379 134.533 512.361 132.926 510.433 130.799L507.507 133.451ZM520.665 138.482V142.431H534.403V138.482V134.533H520.665V138.482ZM534.403 138.482V142.431C541.501 142.431 546.804 140.167 550.487 136.102L547.561 133.451L544.635 130.799C542.707 132.926 539.689 134.533 534.403 134.533V138.482ZM547.561 133.451L550.455 136.138C553.624 132.725 555.574 128.097 555.574 123.098H551.625H547.676C547.676 126.033 546.529 128.759 544.667 130.764L547.561 133.451ZM551.625 123.098H555.574C555.574 117.638 553.272 112.535 549.485 108.992L546.787 111.875L544.089 114.759C546.3 116.828 547.676 119.851 547.676 123.098H551.625ZM546.787 111.875L549.478 108.985C545.85 105.608 541.171 103.67 534.403 103.67V107.618V111.567C539.438 111.567 542.113 112.919 544.096 114.766L546.787 111.875ZM646.211 90.3003H650.16V86.3513H646.211V90.3003ZM646.211 107.618V111.567H650.16V107.618H646.211ZM594.934 117.584H590.985V121.533H594.934V117.584ZM645.921 117.584H649.87V113.635H645.921V117.584ZM645.921 133.838V137.787H649.87V133.838H645.921ZM594.934 133.838V129.889H590.985V133.838H594.934ZM594.934 155.703V159.652H598.883V155.703H594.934ZM577.422 155.703H573.473V159.652H577.422V155.703ZM589.225 90.3003V94.2493H646.211V90.3003V86.3513H589.225V90.3003ZM646.211 90.3003H642.262V107.618H646.211H650.16V90.3003H646.211ZM646.211 107.618V103.67H597.643V107.618V111.567H646.211V107.618ZM597.643 107.618V103.67C596.061 103.67 594.148 104.097 592.7 105.663C591.308 107.167 590.985 109.044 590.985 110.521H594.934H598.883C598.883 110.063 598.995 110.489 598.498 111.026C598.25 111.294 597.973 111.447 597.767 111.521C597.585 111.585 597.517 111.567 597.643 111.567V107.618ZM594.934 110.521H590.985V117.584H594.934H598.883V110.521H594.934ZM594.934 117.584V121.533H645.921V117.584V113.635H594.934V117.584ZM645.921 117.584H641.972V133.838H645.921H649.87V117.584H645.921ZM645.921 133.838V129.889H594.934V133.838V137.787H645.921V133.838ZM594.934 133.838H590.985V155.703H594.934H598.883V133.838H594.934ZM594.934 155.703V151.754H577.422V155.703V159.652H594.934V155.703ZM577.422 155.703H581.371V102.297H577.422H573.473V155.703H577.422ZM577.422 102.297H581.371C581.371 98.8184 582.22 97.0068 583.186 96.0349C584.147 95.0678 585.904 94.2493 589.225 94.2493V90.3003V86.3513C584.711 86.3513 580.565 87.4677 577.584 90.4674C574.607 93.4623 573.473 97.6491 573.473 102.297H577.422ZM722.647 90.3003H726.596V86.3513H722.647V90.3003ZM722.647 107.618V111.567H726.596V107.618H722.647ZM671.37 117.584H667.421V121.533H671.37V117.584ZM722.357 117.584H726.306V113.635H722.357V117.584ZM722.357 133.838V137.787H726.306V133.838H722.357ZM671.37 133.838V129.889H667.421V133.838H671.37ZM671.37 155.703V159.652H675.319V155.703H671.37ZM653.858 155.703H649.909V159.652H653.858V155.703ZM665.662 90.3003V94.2493H722.647V90.3003V86.3513H665.662V90.3003ZM722.647 90.3003H718.698V107.618H722.647H726.596V90.3003H722.647ZM722.647 107.618V103.67H674.079V107.618V111.567H722.647V107.618ZM674.079 107.618V103.67C672.497 103.67 670.584 104.097 669.136 105.663C667.744 107.167 667.421 109.044 667.421 110.521H671.37H675.319C675.319 110.063 675.431 110.489 674.934 111.026C674.686 111.294 674.409 111.447 674.203 111.521C674.021 111.585 673.954 111.567 674.079 111.567V107.618ZM671.37 110.521H667.421V117.584H671.37H675.319V110.521H671.37ZM671.37 117.584V121.533H722.357V117.584V113.635H671.37V117.584ZM722.357 117.584H718.408V133.838H722.357H726.306V117.584H722.357ZM722.357 133.838V129.889H671.37V133.838V137.787H722.357V133.838ZM671.37 133.838H667.421V155.703H671.37H675.319V133.838H671.37ZM671.37 155.703V151.754H653.858V155.703V159.652H671.37V155.703ZM653.858 155.703H657.807V102.297H653.858H649.909V155.703H653.858ZM653.858 102.297H657.807C657.807 98.8184 658.656 97.0068 659.622 96.0349C660.583 95.0678 662.34 94.2493 665.662 94.2493V90.3003V86.3513C661.147 86.3513 657.002 87.4677 654.02 90.4674C651.044 93.4623 649.909 97.6491 649.909 102.297H653.858Z" fill="black" mask="url(#path-1-outside-1_779_1047)"/>
<mask id="path-3-outside-2_779_1047" maskUnits="userSpaceOnUse" x="112.885" y="78.792" width="623" height="74" fill="black">
<rect fill="white" x="112.885" y="78.792" width="623" height="74"/>
<path d="M186.815 131.571V148.792H152.566C140.859 148.792 132.248 144.729 126.25 138.15C121.026 132.441 117.833 124.701 117.833 116.091C117.833 106.609 121.896 97.9984 128.378 91.9999C134.183 86.6786 142.02 83.3892 152.566 83.3892H186.815V100.707H152.566C146.664 100.707 142.988 102.352 140.182 104.964C137.183 107.77 135.344 111.834 135.344 116.187C135.344 120.154 136.892 123.831 139.408 126.54C142.214 129.636 146.374 131.571 152.566 131.571H186.815ZM239.717 148.792H225.979C214.272 148.792 205.661 144.729 199.663 138.15C194.438 132.441 191.245 124.701 191.245 116.091C191.245 106.609 195.309 97.9984 201.791 91.9999C207.596 86.6786 215.433 83.3892 225.979 83.3892H239.717C250.263 83.3892 258.1 86.6786 263.905 91.9999C270.387 97.9984 274.45 106.609 274.45 116.091C274.45 124.701 271.257 132.441 266.033 138.15C260.035 144.729 251.424 148.792 239.717 148.792ZM239.717 100.707H225.979C220.077 100.707 216.4 102.352 213.595 104.964C210.595 107.77 208.757 111.834 208.757 116.187C208.757 120.154 210.305 123.831 212.821 126.54C215.626 129.636 219.787 131.571 225.979 131.571H239.717C245.909 131.571 250.069 129.636 252.875 126.54C255.391 123.831 256.939 120.154 256.939 116.187C256.939 111.834 255.1 107.77 252.101 104.964C249.295 102.352 245.619 100.707 239.717 100.707ZM329.853 148.792H316.115C304.408 148.792 295.797 144.729 289.799 138.15C284.574 132.441 281.381 124.701 281.381 116.091C281.381 106.609 285.445 97.9984 291.927 91.9999C297.732 86.6786 305.569 83.3892 316.115 83.3892H329.853C340.399 83.3892 348.236 86.6786 354.04 91.9999C360.523 97.9984 364.586 106.609 364.586 116.091C364.586 124.701 361.393 132.441 356.169 138.15C350.171 144.729 341.56 148.792 329.853 148.792ZM329.853 100.707H316.115C310.213 100.707 306.536 102.352 303.731 104.964C300.731 107.77 298.893 111.834 298.893 116.187C298.893 120.154 300.441 123.831 302.957 126.54C305.762 129.636 309.923 131.571 316.115 131.571H329.853C336.045 131.571 340.205 129.636 343.011 126.54C345.527 123.831 347.075 120.154 347.075 116.187C347.075 111.834 345.236 107.77 342.237 104.964C339.431 102.352 335.755 100.707 329.853 100.707ZM372.969 83.3892H390.674V110.189L420.473 86.0982C421.44 85.3242 422.505 84.2599 423.182 83.3892H447.659C447.272 83.9697 446.499 84.6469 445.918 85.1306L409.927 112.995C409.54 113.285 409.347 113.575 409.347 114.059C409.347 114.543 409.443 114.736 409.927 115.123L448.53 146.373C449.401 147.147 450.272 147.921 451.046 148.792H424.923C424.149 147.921 423.182 147.05 422.021 146.083L390.674 119.864V148.792H372.969V83.3892ZM543.288 148.792H529.55C517.843 148.792 509.232 144.729 503.234 138.15C498.009 132.441 494.817 124.701 494.817 116.091C494.817 106.609 498.88 97.9984 505.362 91.9999C511.167 86.6786 519.004 83.3892 529.55 83.3892H543.288C553.834 83.3892 561.671 86.6786 567.476 91.9999C573.958 97.9984 578.021 106.609 578.021 116.091C578.021 124.701 574.829 132.441 569.604 138.15C563.606 144.729 554.995 148.792 543.288 148.792ZM543.288 100.707H529.55C523.648 100.707 519.972 102.352 517.166 104.964C514.167 107.77 512.328 111.834 512.328 116.187C512.328 120.154 513.876 123.831 516.392 126.54C519.198 129.636 523.358 131.571 529.55 131.571H543.288C549.48 131.571 553.641 129.636 556.446 126.54C558.962 123.831 560.51 120.154 560.51 116.187C560.51 111.834 558.672 107.77 555.672 104.964C552.867 102.352 549.19 100.707 543.288 100.707ZM598.111 83.3892H655.096V100.707H606.528C604.69 100.707 603.819 101.675 603.819 103.61V110.673H654.806V126.927H603.819V148.792H586.307V95.3861C586.307 87.2591 590.274 83.3892 598.111 83.3892ZM674.547 83.3892H731.532V100.707H682.964C681.126 100.707 680.255 101.675 680.255 103.61V110.673H731.242V126.927H680.255V148.792H662.743V95.3861C662.743 87.2591 666.71 83.3892 674.547 83.3892Z"/>
</mask>
<path d="M186.815 131.571V148.792H152.566C140.859 148.792 132.248 144.729 126.25 138.15C121.026 132.441 117.833 124.701 117.833 116.091C117.833 106.609 121.896 97.9984 128.378 91.9999C134.183 86.6786 142.02 83.3892 152.566 83.3892H186.815V100.707H152.566C146.664 100.707 142.988 102.352 140.182 104.964C137.183 107.77 135.344 111.834 135.344 116.187C135.344 120.154 136.892 123.831 139.408 126.54C142.214 129.636 146.374 131.571 152.566 131.571H186.815ZM239.717 148.792H225.979C214.272 148.792 205.661 144.729 199.663 138.15C194.438 132.441 191.245 124.701 191.245 116.091C191.245 106.609 195.309 97.9984 201.791 91.9999C207.596 86.6786 215.433 83.3892 225.979 83.3892H239.717C250.263 83.3892 258.1 86.6786 263.905 91.9999C270.387 97.9984 274.45 106.609 274.45 116.091C274.45 124.701 271.257 132.441 266.033 138.15C260.035 144.729 251.424 148.792 239.717 148.792ZM239.717 100.707H225.979C220.077 100.707 216.4 102.352 213.595 104.964C210.595 107.77 208.757 111.834 208.757 116.187C208.757 120.154 210.305 123.831 212.821 126.54C215.626 129.636 219.787 131.571 225.979 131.571H239.717C245.909 131.571 250.069 129.636 252.875 126.54C255.391 123.831 256.939 120.154 256.939 116.187C256.939 111.834 255.1 107.77 252.101 104.964C249.295 102.352 245.619 100.707 239.717 100.707ZM329.853 148.792H316.115C304.408 148.792 295.797 144.729 289.799 138.15C284.574 132.441 281.381 124.701 281.381 116.091C281.381 106.609 285.445 97.9984 291.927 91.9999C297.732 86.6786 305.569 83.3892 316.115 83.3892H329.853C340.399 83.3892 348.236 86.6786 354.04 91.9999C360.523 97.9984 364.586 106.609 364.586 116.091C364.586 124.701 361.393 132.441 356.169 138.15C350.171 144.729 341.56 148.792 329.853 148.792ZM329.853 100.707H316.115C310.213 100.707 306.536 102.352 303.731 104.964C300.731 107.77 298.893 111.834 298.893 116.187C298.893 120.154 300.441 123.831 302.957 126.54C305.762 129.636 309.923 131.571 316.115 131.571H329.853C336.045 131.571 340.205 129.636 343.011 126.54C345.527 123.831 347.075 120.154 347.075 116.187C347.075 111.834 345.236 107.77 342.237 104.964C339.431 102.352 335.755 100.707 329.853 100.707ZM372.969 83.3892H390.674V110.189L420.473 86.0982C421.44 85.3242 422.505 84.2599 423.182 83.3892H447.659C447.272 83.9697 446.499 84.6469 445.918 85.1306L409.927 112.995C409.54 113.285 409.347 113.575 409.347 114.059C409.347 114.543 409.443 114.736 409.927 115.123L448.53 146.373C449.401 147.147 450.272 147.921 451.046 148.792H424.923C424.149 147.921 423.182 147.05 422.021 146.083L390.674 119.864V148.792H372.969V83.3892ZM543.288 148.792H529.55C517.843 148.792 509.232 144.729 503.234 138.15C498.009 132.441 494.817 124.701 494.817 116.091C494.817 106.609 498.88 97.9984 505.362 91.9999C511.167 86.6786 519.004 83.3892 529.55 83.3892H543.288C553.834 83.3892 561.671 86.6786 567.476 91.9999C573.958 97.9984 578.021 106.609 578.021 116.091C578.021 124.701 574.829 132.441 569.604 138.15C563.606 144.729 554.995 148.792 543.288 148.792ZM543.288 100.707H529.55C523.648 100.707 519.972 102.352 517.166 104.964C514.167 107.77 512.328 111.834 512.328 116.187C512.328 120.154 513.876 123.831 516.392 126.54C519.198 129.636 523.358 131.571 529.55 131.571H543.288C549.48 131.571 553.641 129.636 556.446 126.54C558.962 123.831 560.51 120.154 560.51 116.187C560.51 111.834 558.672 107.77 555.672 104.964C552.867 102.352 549.19 100.707 543.288 100.707ZM598.111 83.3892H655.096V100.707H606.528C604.69 100.707 603.819 101.675 603.819 103.61V110.673H654.806V126.927H603.819V148.792H586.307V95.3861C586.307 87.2591 590.274 83.3892 598.111 83.3892ZM674.547 83.3892H731.532V100.707H682.964C681.126 100.707 680.255 101.675 680.255 103.61V110.673H731.242V126.927H680.255V148.792H662.743V95.3861C662.743 87.2591 666.71 83.3892 674.547 83.3892Z" fill="#B7AB98"/>
<path d="M186.815 131.571H190.764V127.622H186.815V131.571ZM186.815 148.792V152.741H190.764V148.792H186.815ZM126.25 138.15L129.168 135.489L129.163 135.483L126.25 138.15ZM128.378 91.9999L125.71 89.0889L125.703 89.0952L125.696 89.1015L128.378 91.9999ZM186.815 83.3892H190.764V79.4402H186.815V83.3892ZM186.815 100.707V104.656H190.764V100.707H186.815ZM140.182 104.964L137.491 102.074L137.484 102.081L140.182 104.964ZM139.408 126.54L142.334 123.888L142.318 123.87L142.302 123.852L139.408 126.54ZM186.815 131.571H182.866V148.792H186.815H190.764V131.571H186.815ZM186.815 148.792V144.843H152.566V148.792V152.741H186.815V148.792ZM152.566 148.792V144.843C141.869 144.843 134.353 141.175 129.168 135.489L126.25 138.15L123.332 140.81C130.144 148.282 139.85 152.741 152.566 152.741V148.792ZM126.25 138.15L129.163 135.483C124.601 130.499 121.782 123.709 121.782 116.091H117.833H113.884C113.884 125.693 117.45 134.383 123.337 140.816L126.25 138.15ZM117.833 116.091H121.782C121.782 107.756 125.352 100.181 131.061 94.8983L128.378 91.9999L125.696 89.1015C118.441 95.8156 113.884 105.463 113.884 116.091H117.833ZM128.378 91.9999L131.047 94.9109C136.062 90.3141 142.921 87.3381 152.566 87.3381V83.3892V79.4402C141.12 79.4402 132.305 83.0432 125.71 89.0889L128.378 91.9999ZM152.566 83.3892V87.3381H186.815V83.3892V79.4402H152.566V83.3892ZM186.815 83.3892H182.866V100.707H186.815H190.764V83.3892H186.815ZM186.815 100.707V96.7584H152.566V100.707V104.656H186.815V100.707ZM152.566 100.707V96.7584C145.798 96.7584 141.119 98.6965 137.491 102.074L140.182 104.964L142.873 107.855C144.856 106.008 147.531 104.656 152.566 104.656V100.707ZM140.182 104.964L137.484 102.081C133.697 105.624 131.396 110.727 131.396 116.187H135.344H139.293C139.293 112.94 140.669 109.917 142.88 107.848L140.182 104.964ZM135.344 116.187H131.396C131.396 121.186 133.345 125.814 136.514 129.227L139.408 126.54L142.302 123.852C140.44 121.847 139.293 119.122 139.293 116.187H135.344ZM139.408 126.54L136.482 129.191C140.166 133.256 145.468 135.52 152.566 135.52V131.571V127.622C147.28 127.622 144.262 126.015 142.334 123.888L139.408 126.54ZM152.566 131.571V135.52H186.815V131.571V127.622H152.566V131.571ZM199.663 138.15L202.581 135.489L202.576 135.483L199.663 138.15ZM201.791 91.9999L199.123 89.0889L199.116 89.0952L199.109 89.1015L201.791 91.9999ZM263.905 91.9999L266.587 89.1015L266.58 89.0952L266.573 89.0889L263.905 91.9999ZM266.033 138.15L263.12 135.483L263.115 135.489L266.033 138.15ZM213.595 104.964L210.904 102.074L210.897 102.081L213.595 104.964ZM212.821 126.54L215.747 123.888L215.731 123.87L215.714 123.852L212.821 126.54ZM252.875 126.54L249.981 123.852L249.965 123.87L249.949 123.888L252.875 126.54ZM252.101 104.964L254.799 102.081L254.792 102.074L252.101 104.964ZM239.717 148.792V144.843H225.979V148.792V152.741H239.717V148.792ZM225.979 148.792V144.843C215.281 144.843 207.765 141.175 202.581 135.489L199.663 138.15L196.745 140.81C203.557 148.282 213.262 152.741 225.979 152.741V148.792ZM199.663 138.15L202.576 135.483C198.014 130.499 195.194 123.709 195.194 116.091H191.245H187.296C187.296 125.693 190.862 134.383 196.75 140.816L199.663 138.15ZM191.245 116.091H195.194C195.194 107.756 198.764 100.181 204.473 94.8983L201.791 91.9999L199.109 89.1015C191.854 95.8156 187.296 105.463 187.296 116.091H191.245ZM201.791 91.9999L204.46 94.9109C209.474 90.3141 216.333 87.3381 225.979 87.3381V83.3892V79.4402C214.532 79.4402 205.718 83.0432 199.123 89.0889L201.791 91.9999ZM225.979 83.3892V87.3381H239.717V83.3892V79.4402H225.979V83.3892ZM239.717 83.3892V87.3381C249.362 87.3381 256.221 90.3141 261.236 94.9109L263.905 91.9999L266.573 89.0889C259.978 83.0432 251.163 79.4402 239.717 79.4402V83.3892ZM263.905 91.9999L261.222 94.8983C266.931 100.181 270.501 107.756 270.501 116.091H274.45H278.399C278.399 105.463 273.842 95.8156 266.587 89.1015L263.905 91.9999ZM274.45 116.091H270.501C270.501 123.709 267.682 130.499 263.12 135.483L266.033 138.15L268.946 140.816C274.833 134.383 278.399 125.693 278.399 116.091H274.45ZM266.033 138.15L263.115 135.489C257.93 141.175 250.414 144.843 239.717 144.843V148.792V152.741C252.433 152.741 262.139 148.282 268.951 140.81L266.033 138.15ZM239.717 100.707V96.7584H225.979V100.707V104.656H239.717V100.707ZM225.979 100.707V96.7584C219.21 96.7584 214.532 98.6965 210.904 102.074L213.595 104.964L216.286 107.855C218.269 106.008 220.943 104.656 225.979 104.656V100.707ZM213.595 104.964L210.897 102.081C207.109 105.624 204.808 110.727 204.808 116.187H208.757H212.706C212.706 112.94 214.081 109.917 216.292 107.848L213.595 104.964ZM208.757 116.187H204.808C204.808 121.186 206.758 125.814 209.927 129.227L212.821 126.54L215.714 123.852C213.853 121.847 212.706 119.122 212.706 116.187H208.757ZM212.821 126.54L209.895 129.191C213.578 133.256 218.88 135.52 225.979 135.52V131.571V127.622C220.693 127.622 217.675 126.015 215.747 123.888L212.821 126.54ZM225.979 131.571V135.52H239.717V131.571V127.622H225.979V131.571ZM239.717 131.571V135.52C246.815 135.52 252.117 133.256 255.801 129.191L252.875 126.54L249.949 123.888C248.021 126.015 245.003 127.622 239.717 127.622V131.571ZM252.875 126.54L255.769 129.227C258.938 125.814 260.887 121.186 260.887 116.187H256.939H252.99C252.99 119.122 251.843 121.847 249.981 123.852L252.875 126.54ZM256.939 116.187H260.887C260.887 110.727 258.586 105.624 254.799 102.081L252.101 104.964L249.403 107.848C251.614 109.917 252.99 112.94 252.99 116.187H256.939ZM252.101 104.964L254.792 102.074C251.164 98.6965 246.485 96.7584 239.717 96.7584V100.707V104.656C244.752 104.656 247.427 106.008 249.41 107.855L252.101 104.964ZM289.799 138.15L292.717 135.489L292.712 135.483L289.799 138.15ZM291.927 91.9999L289.259 89.0889L289.252 89.0952L289.245 89.1015L291.927 91.9999ZM354.04 91.9999L356.723 89.1015L356.716 89.0952L356.709 89.0889L354.04 91.9999ZM356.169 138.15L353.256 135.483L353.251 135.489L356.169 138.15ZM303.731 104.964L301.04 102.074L301.033 102.081L303.731 104.964ZM302.957 126.54L305.883 123.888L305.867 123.87L305.85 123.852L302.957 126.54ZM343.011 126.54L340.117 123.852L340.101 123.87L340.085 123.888L343.011 126.54ZM342.237 104.964L344.935 102.081L344.928 102.074L342.237 104.964ZM329.853 148.792V144.843H316.115V148.792V152.741H329.853V148.792ZM316.115 148.792V144.843C305.417 144.843 297.901 141.175 292.717 135.489L289.799 138.15L286.881 140.81C293.693 148.282 303.398 152.741 316.115 152.741V148.792ZM289.799 138.15L292.712 135.483C288.15 130.499 285.33 123.709 285.33 116.091H281.381H277.432C277.432 125.693 280.998 134.383 286.886 140.816L289.799 138.15ZM281.381 116.091H285.33C285.33 107.756 288.9 100.181 294.609 94.8983L291.927 91.9999L289.245 89.1015C281.99 95.8156 277.432 105.463 277.432 116.091H281.381ZM291.927 91.9999L294.596 94.9109C299.61 90.3141 306.469 87.3381 316.115 87.3381V83.3892V79.4402C304.668 79.4402 295.854 83.0432 289.259 89.0889L291.927 91.9999ZM316.115 83.3892V87.3381H329.853V83.3892V79.4402H316.115V83.3892ZM329.853 83.3892V87.3381C339.498 87.3381 346.357 90.3141 351.372 94.9109L354.04 91.9999L356.709 89.0889C350.114 83.0432 341.299 79.4402 329.853 79.4402V83.3892ZM354.04 91.9999L351.358 94.8983C357.067 100.181 360.637 107.756 360.637 116.091H364.586H368.535C368.535 105.463 363.978 95.8156 356.723 89.1015L354.04 91.9999ZM364.586 116.091H360.637C360.637 123.709 357.818 130.499 353.256 135.483L356.169 138.15L359.082 140.816C364.969 134.383 368.535 125.693 368.535 116.091H364.586ZM356.169 138.15L353.251 135.489C348.066 141.175 340.55 144.843 329.853 144.843V148.792V152.741C342.569 152.741 352.275 148.282 359.087 140.81L356.169 138.15ZM329.853 100.707V96.7584H316.115V100.707V104.656H329.853V100.707ZM316.115 100.707V96.7584C309.346 96.7584 304.668 98.6965 301.04 102.074L303.731 104.964L306.422 107.855C308.405 106.008 311.079 104.656 316.115 104.656V100.707ZM303.731 104.964L301.033 102.081C297.245 105.624 294.944 110.727 294.944 116.187H298.893H302.842C302.842 112.94 304.217 109.917 306.428 107.848L303.731 104.964ZM298.893 116.187H294.944C294.944 121.186 296.894 125.814 300.063 129.227L302.957 126.54L305.85 123.852C303.989 121.847 302.842 119.122 302.842 116.187H298.893ZM302.957 126.54L300.03 129.191C303.714 133.256 309.016 135.52 316.115 135.52V131.571V127.622C310.829 127.622 307.811 126.015 305.883 123.888L302.957 126.54ZM316.115 131.571V135.52H329.853V131.571V127.622H316.115V131.571ZM329.853 131.571V135.52C336.951 135.52 342.253 133.256 345.937 129.191L343.011 126.54L340.085 123.888C338.157 126.015 335.139 127.622 329.853 127.622V131.571ZM343.011 126.54L345.905 129.227C349.074 125.814 351.023 121.186 351.023 116.187H347.074H343.126C343.126 119.122 341.979 121.847 340.117 123.852L343.011 126.54ZM347.074 116.187H351.023C351.023 110.727 348.722 105.624 344.935 102.081L342.237 104.964L339.539 107.848C341.75 109.917 343.126 112.94 343.126 116.187H347.074ZM342.237 104.964L344.928 102.074C341.3 98.6965 336.621 96.7584 329.853 96.7584V100.707V104.656C334.888 104.656 337.562 106.008 339.546 107.855L342.237 104.964ZM372.969 83.3892V79.4402H369.02V83.3892H372.969ZM390.674 83.3892H394.623V79.4402H390.674V83.3892ZM390.674 110.189H386.725V118.459L393.157 113.26L390.674 110.189ZM420.473 86.0982L418.006 83.0145L417.998 83.0209L417.99 83.0272L420.473 86.0982ZM423.182 83.3892V79.4402H421.25L420.065 80.9647L423.182 83.3892ZM447.659 83.3892L450.945 85.5796L455.038 79.4402H447.659V83.3892ZM445.918 85.1306L448.335 88.2532L448.392 88.2098L448.446 88.1643L445.918 85.1306ZM409.927 112.995L412.296 116.154L412.321 116.136L412.345 116.117L409.927 112.995ZM409.927 115.123L412.412 112.054L412.403 112.047L412.394 112.039L409.927 115.123ZM448.53 146.373L451.154 143.422L451.086 143.361L451.015 143.304L448.53 146.373ZM451.046 148.792V152.741H459.839L453.997 146.168L451.046 148.792ZM424.923 148.792L421.972 151.416L423.15 152.741H424.923V148.792ZM422.021 146.083L419.487 149.112L419.493 149.117L422.021 146.083ZM390.674 119.864L393.207 116.835L386.725 111.413V119.864H390.674ZM390.674 148.792V152.741H394.623V148.792H390.674ZM372.969 148.792H369.02V152.741H372.969V148.792ZM372.969 83.3892V87.3381H390.674V83.3892V79.4402H372.969V83.3892ZM390.674 83.3892H386.725V110.189H390.674H394.623V83.3892H390.674ZM390.674 110.189L393.157 113.26L422.956 89.1691L420.473 86.0982L417.99 83.0272L388.191 107.118L390.674 110.189ZM420.473 86.0982L422.94 89.1818C424.12 88.2376 425.41 86.9566 426.299 85.8136L423.182 83.3892L420.065 80.9647C419.599 81.5632 418.761 82.4107 418.006 83.0145L420.473 86.0982ZM423.182 83.3892V87.3381H447.659V83.3892V79.4402H423.182V83.3892ZM447.659 83.3892L444.374 81.1987C444.409 81.1451 444.414 81.1479 444.357 81.211C444.306 81.2688 444.229 81.3486 444.124 81.4496C443.91 81.6555 443.655 81.8761 443.39 82.097L445.918 85.1306L448.446 88.1643C448.945 87.7482 450.187 86.7177 450.945 85.5796L447.659 83.3892ZM445.918 85.1306L443.501 82.0081L407.51 109.872L409.927 112.995L412.345 116.117L448.335 88.2532L445.918 85.1306ZM409.927 112.995L407.558 109.835C407.131 110.156 406.527 110.682 406.063 111.495C405.569 112.359 405.398 113.253 405.398 114.059H409.347H413.296C413.296 114.381 413.221 114.887 412.92 115.413C412.65 115.887 412.337 116.124 412.296 116.154L409.927 112.995ZM409.347 114.059H405.398C405.398 114.532 405.432 115.484 405.978 116.499C406.464 117.402 407.154 117.962 407.46 118.207L409.927 115.123L412.394 112.039C412.216 111.897 412.616 112.167 412.932 112.755C413.109 113.084 413.207 113.405 413.256 113.674C413.278 113.797 413.287 113.895 413.291 113.957C413.296 114.018 413.296 114.056 413.296 114.059H409.347ZM409.927 115.123L407.442 118.192L446.046 149.443L448.53 146.373L451.015 143.304L412.412 112.054L409.927 115.123ZM448.53 146.373L445.907 149.325C446.807 150.125 447.5 150.747 448.094 151.416L451.046 148.792L453.997 146.168C453.043 145.095 451.995 144.17 451.154 143.422L448.53 146.373ZM451.046 148.792V144.843H424.923V148.792V152.741H451.046V148.792ZM424.923 148.792L427.875 146.168C426.902 145.074 425.753 144.053 424.549 143.049L422.021 146.083L419.493 149.117C420.61 150.048 421.397 150.769 421.972 151.416L424.923 148.792ZM422.021 146.083L424.554 143.054L393.207 116.835L390.674 119.864L388.14 122.893L419.487 149.112L422.021 146.083ZM390.674 119.864H386.725V148.792H390.674H394.623V119.864H390.674ZM390.674 148.792V144.843H372.969V148.792V152.741H390.674V148.792ZM372.969 148.792H376.918V83.3892H372.969H369.02V148.792H372.969ZM503.234 138.15L506.152 135.489L506.147 135.483L503.234 138.15ZM505.362 91.9999L502.694 89.0889L502.687 89.0952L502.68 89.1015L505.362 91.9999ZM567.476 91.9999L570.158 89.1015L570.151 89.0952L570.144 89.0889L567.476 91.9999ZM569.604 138.15L566.691 135.483L566.686 135.489L569.604 138.15ZM517.166 104.964L514.475 102.074L514.468 102.081L517.166 104.964ZM516.392 126.54L519.318 123.888L519.302 123.87L519.286 123.852L516.392 126.54ZM556.446 126.54L553.552 123.852L553.536 123.87L553.52 123.888L556.446 126.54ZM555.672 104.964L558.37 102.081L558.363 102.074L555.672 104.964ZM543.288 148.792V144.843H529.55V148.792V152.741H543.288V148.792ZM529.55 148.792V144.843C518.853 144.843 511.337 141.175 506.152 135.489L503.234 138.15L500.316 140.81C507.128 148.282 516.834 152.741 529.55 152.741V148.792ZM503.234 138.15L506.147 135.483C501.585 130.499 498.766 123.709 498.766 116.091H494.817H490.868C490.868 125.693 494.434 134.383 500.321 140.816L503.234 138.15ZM494.817 116.091H498.766C498.766 107.756 502.336 100.181 508.044 94.8983L505.362 91.9999L502.68 89.1015C495.425 95.8156 490.868 105.463 490.868 116.091H494.817ZM505.362 91.9999L508.031 94.9109C513.045 90.3141 519.905 87.3381 529.55 87.3381V83.3892V79.4402C518.104 79.4402 509.289 83.0432 502.694 89.0889L505.362 91.9999ZM529.55 83.3892V87.3381H543.288V83.3892V79.4402H529.55V83.3892ZM543.288 83.3892V87.3381C552.933 87.3381 559.793 90.3141 564.807 94.9109L567.476 91.9999L570.144 89.0889C563.549 83.0432 554.735 79.4402 543.288 79.4402V83.3892ZM567.476 91.9999L564.794 94.8983C570.503 100.181 574.073 107.756 574.073 116.091H578.021H581.97C581.97 105.463 577.413 95.8156 570.158 89.1015L567.476 91.9999ZM578.021 116.091H574.073C574.073 123.709 571.253 130.499 566.691 135.483L569.604 138.15L572.517 140.816C578.405 134.383 581.97 125.693 581.97 116.091H578.021ZM569.604 138.15L566.686 135.489C561.501 141.175 553.986 144.843 543.288 144.843V148.792V152.741C556.004 152.741 565.71 148.282 572.522 140.81L569.604 138.15ZM543.288 100.707V96.7584H529.55V100.707V104.656H543.288V100.707ZM529.55 100.707V96.7584C522.782 96.7584 518.103 98.6965 514.475 102.074L517.166 104.964L519.857 107.855C521.84 106.008 524.515 104.656 529.55 104.656V100.707ZM517.166 104.964L514.468 102.081C510.681 105.624 508.379 110.727 508.379 116.187H512.328H516.277C516.277 112.94 517.653 109.917 519.864 107.848L517.166 104.964ZM512.328 116.187H508.379C508.379 121.186 510.329 125.814 513.498 129.227L516.392 126.54L519.286 123.852C517.424 121.847 516.277 119.122 516.277 116.187H512.328ZM516.392 126.54L513.466 129.191C517.149 133.256 522.452 135.52 529.55 135.52V131.571V127.622C524.264 127.622 521.246 126.015 519.318 123.888L516.392 126.54ZM529.55 131.571V135.52H543.288V131.571V127.622H529.55V131.571ZM543.288 131.571V135.52C550.387 135.52 555.689 133.256 559.372 129.191L556.446 126.54L553.52 123.888C551.592 126.015 548.574 127.622 543.288 127.622V131.571ZM556.446 126.54L559.34 129.227C562.509 125.814 564.459 121.186 564.459 116.187H560.51H556.561C556.561 119.122 555.414 121.847 553.552 123.852L556.446 126.54ZM560.51 116.187H564.459C564.459 110.727 562.157 105.624 558.37 102.081L555.672 104.964L552.974 107.848C555.186 109.917 556.561 112.94 556.561 116.187H560.51ZM555.672 104.964L558.363 102.074C554.735 98.6965 550.056 96.7584 543.288 96.7584V100.707V104.656C548.324 104.656 550.998 106.008 552.981 107.855L555.672 104.964ZM655.096 83.3892H659.045V79.4402H655.096V83.3892ZM655.096 100.707V104.656H659.045V100.707H655.096ZM603.819 110.673H599.87V114.622H603.819V110.673ZM654.806 110.673H658.755V106.724H654.806V110.673ZM654.806 126.927V130.876H658.755V126.927H654.806ZM603.819 126.927V122.978H599.87V126.927H603.819ZM603.819 148.792V152.741H607.768V148.792H603.819ZM586.307 148.792H582.358V152.741H586.307V148.792ZM598.111 83.3892V87.3381H655.096V83.3892V79.4402H598.111V83.3892ZM655.096 83.3892H651.147V100.707H655.096H659.045V83.3892H655.096ZM655.096 100.707V96.7584H606.528V100.707V104.656H655.096V100.707ZM606.528 100.707V96.7584C604.946 96.7584 603.033 97.1863 601.585 98.7515C600.193 100.256 599.87 102.132 599.87 103.61H603.819H607.768C607.768 103.152 607.88 103.577 607.383 104.115C607.135 104.383 606.858 104.536 606.652 104.61C606.47 104.674 606.403 104.656 606.528 104.656V100.707ZM603.819 103.61H599.87V110.673H603.819H607.768V103.61H603.819ZM603.819 110.673V114.622H654.806V110.673V106.724H603.819V110.673ZM654.806 110.673H650.857V126.927H654.806H658.755V110.673H654.806ZM654.806 126.927V122.978H603.819V126.927V130.876H654.806V126.927ZM603.819 126.927H599.87V148.792H603.819H607.768V126.927H603.819ZM603.819 148.792V144.843H586.307V148.792V152.741H603.819V148.792ZM586.307 148.792H590.256V95.3861H586.307H582.358V148.792H586.307ZM586.307 95.3861H590.256C590.256 91.9073 591.105 90.0956 592.071 89.1238C593.032 88.1567 594.789 87.3381 598.111 87.3381V83.3892V79.4402C593.596 79.4402 589.451 80.5566 586.469 83.5562C583.493 86.5511 582.358 90.738 582.358 95.3861H586.307ZM731.532 83.3892H735.481V79.4402H731.532V83.3892ZM731.532 100.707V104.656H735.481V100.707H731.532ZM680.255 110.673H676.306V114.622H680.255V110.673ZM731.242 110.673H735.191V106.724H731.242V110.673ZM731.242 126.927V130.876H735.191V126.927H731.242ZM680.255 126.927V122.978H676.306V126.927H680.255ZM680.255 148.792V152.741H684.204V148.792H680.255ZM662.743 148.792H658.794V152.741H662.743V148.792ZM674.547 83.3892V87.3381H731.532V83.3892V79.4402H674.547V83.3892ZM731.532 83.3892H727.583V100.707H731.532H735.481V83.3892H731.532ZM731.532 100.707V96.7584H682.964V100.707V104.656H731.532V100.707ZM682.964 100.707V96.7584C681.382 96.7584 679.469 97.1863 678.021 98.7515C676.629 100.256 676.306 102.132 676.306 103.61H680.255H684.204C684.204 103.152 684.316 103.577 683.819 104.115C683.571 104.383 683.294 104.536 683.088 104.61C682.906 104.674 682.839 104.656 682.964 104.656V100.707ZM680.255 103.61H676.306V110.673H680.255H684.204V103.61H680.255ZM680.255 110.673V114.622H731.242V110.673V106.724H680.255V110.673ZM731.242 110.673H727.293V126.927H731.242H735.191V110.673H731.242ZM731.242 126.927V122.978H680.255V126.927V130.876H731.242V126.927ZM680.255 126.927H676.306V148.792H680.255H684.204V126.927H680.255ZM680.255 148.792V144.843H662.743V148.792V152.741H680.255V148.792ZM662.743 148.792H666.692V95.3861H662.743H658.794V148.792H662.743ZM662.743 95.3861H666.692C666.692 91.9073 667.541 90.0956 668.507 89.1238C669.468 88.1567 671.225 87.3381 674.547 87.3381V83.3892V79.4402C670.032 79.4402 665.887 80.5566 662.905 83.5562C659.929 86.5511 658.794 90.738 658.794 95.3861H662.743Z" fill="black" mask="url(#path-3-outside-2_779_1047)"/>
<g opacity="0.3" filter="url(#filter0_f_779_1047)">
<rect x="114.448" y="87.6689" width="332.701" height="69.107" fill="url(#paint0_linear_779_1047)"/>
</g>
<g opacity="0.3" filter="url(#filter1_f_779_1047)">
<rect x="504.409" y="87.6689" width="231.015" height="69.107" fill="url(#paint1_linear_779_1047)"/>
</g>
<path d="M532.999 194.511C532.999 194.511 535.384 189.447 542.795 185.356C550.205 181.265 568.039 184.868 575.692 191.906C583.344 198.944 580.543 207.523 583.073 209.885C585.619 212.216 599.213 217.007 603.968 228.92C608.723 240.833 602.13 247.097 602.168 249.567C602.206 252.038 607.906 260.668 603.218 274.53C598.529 288.392 581.166 283.788 577.097 280.785C574.154 278.58 575.753 273.51 576.852 270.938L577.603 269.344C577.603 269.344 577.278 269.955 576.852 270.938L566.842 292.191C566.842 292.191 558.169 296.329 538.72 287.144C519.271 277.958 512.533 267.624 512.533 267.624L524.236 242.777C524.236 242.777 514.563 234.847 513.417 228.188C512.257 221.561 514.485 207.821 519.319 201.385C524.261 194.959 532.999 194.511 532.999 194.511Z" fill="#B7AB98"/>
<path d="M578.047 269.435L577.313 271.013C577.729 270.04 578.047 269.435 578.047 269.435Z" fill="#B7AB98"/>
<path d="M532.941 194.477C532.941 194.477 535.323 189.421 542.723 185.335C550.123 181.249 567.932 184.848 575.573 191.876C576.672 192.889 577.54 193.913 578.271 194.989C575.038 194.128 571.544 193.981 568.173 194.529C561.769 195.624 555.894 199.177 551.289 203.78C547.872 207.211 545.058 211.435 544.376 216.148C543.694 220.861 545.605 226.04 549.789 228.225C552.204 223.975 554.693 219.645 558.564 216.603C562.389 213.578 567.971 212.159 572.127 214.483C571.37 219.275 567.45 222.899 564.693 226.922C561.935 230.946 560.467 237.008 564.117 240.089C567.422 242.867 572.449 241.353 576.817 240.679C583.469 239.694 590.377 241.272 595.794 244.981C595.785 248.106 592.061 250.12 588.922 250.016C585.782 249.913 582.86 248.473 579.731 248.11C576.601 247.746 572.784 249.003 571.989 252.045C571.576 253.559 571.895 255.509 570.576 256.398C569.53 257.105 568.105 256.627 567.002 256.102C560.2 253.025 553.366 249.935 546.55 246.889C544.639 246.008 542.544 245.121 540.414 245.501C538.622 245.804 537.094 246.977 535.736 248.187C532.312 251.238 529.44 254.946 527.375 259.012C526.991 259.747 526.64 260.572 526.795 261.357C526.933 262.021 527.39 262.562 527.861 262.996C530.516 265.562 534.008 267.066 537.32 268.715C544.501 272.261 551.196 276.761 557.185 282.042C557.812 282.621 558.471 283.213 558.811 284.004C559.266 285.109 559.001 286.387 558.58 287.521C557.868 289.431 556.674 291.091 555.228 292.488C550.984 291.784 545.505 290.196 538.716 287.012C519.295 277.839 512.566 267.519 512.566 267.519L524.253 242.705C524.253 242.705 514.593 234.786 513.449 228.137C512.291 221.518 514.515 207.797 519.343 201.37C524.216 194.925 532.941 194.477 532.941 194.477Z" fill="#A8A094"/>
<path d="M556.08 243.274L557.121 244.116C557.231 244.203 557.358 244.336 557.468 244.423C556.949 244.078 556.492 243.685 556.08 243.274Z" fill="#0D0D0D"/>
<path d="M531.66 192.412C532.896 190.504 535.892 186.616 541.766 183.395C548.508 179.688 560.991 181.572 569.325 185.249C572.559 186.676 575.229 188.344 577.24 190.213C582.662 195.21 583.403 200.973 583.901 204.779C584.083 206.067 584.291 207.858 584.668 208.175C585.092 208.551 586.355 209.297 587.727 210.053C593.152 213.127 602.21 218.218 606.133 227.989C610.025 237.747 606.901 244.22 605.238 247.752C604.943 248.377 604.575 249.159 604.505 249.467C604.574 249.8 604.839 250.672 605.085 251.346C606.465 255.353 609.295 263.698 605.401 275.154C603.896 279.624 601.086 282.801 597.075 284.618C590.319 287.639 582.129 285.648 578.335 283.974C577.309 283.522 576.452 283.03 575.779 282.544C575.278 282.172 574.852 281.72 574.473 281.251L568.908 293.065C568.687 293.533 568.311 293.934 567.823 294.172C567.442 294.343 558.629 298.382 539.94 290.136C539.225 289.82 538.478 289.491 537.778 289.144C517.987 279.808 511.03 269.301 510.712 268.859C510.298 268.224 510.265 267.416 510.589 266.729L521.586 243.382C518.728 240.838 512.308 234.532 511.302 228.615C510.032 221.184 512.554 206.82 517.643 200.081C521.954 194.358 528.804 192.813 531.66 192.412ZM515.289 223.579C515.035 225.393 515.078 226.657 515.61 227.76C516.079 228.76 516.959 229.601 518.382 230.568C521.274 232.562 524.729 233.52 528.221 234.079C530.941 234.525 532.013 232.808 531.891 230.036C531.818 228.117 531.055 226.308 530.446 224.491C528.258 218.053 528.034 210.555 531.476 204.524C530.748 207.185 530.207 209.928 529.897 212.66C529.701 214.272 529.613 215.895 529.756 217.505C530.233 223.189 533.648 227.98 537.46 231.927C538.342 232.845 539.341 234.154 540.449 234.832C541.713 235.578 543.443 235.813 544.84 236.354C547.015 237.238 549.595 239.018 551.718 236.822C552.743 235.764 553.173 234.293 553.604 232.898C555.187 227.783 557.15 222.42 561.278 218.919C562.85 217.574 564.676 216.568 566.489 215.669C560.938 220.279 556.84 226.587 554.942 233.488C553.815 237.634 554.019 241.347 557.052 244.158L556.017 243.324C556.458 243.745 556.913 244.134 557.397 244.461C557.445 244.52 557.507 244.547 557.585 244.62C558.808 245.612 559.815 246.585 560.925 247.339L562.226 248.404C564.874 250.516 567.671 252.392 571.051 253.43C561.539 250.819 553.655 244.433 544.463 240.982C541.435 239.834 538.184 239.004 534.925 239.302C526.673 240.078 524.375 247.746 521.387 254.091C519.311 258.498 517.25 262.873 515.174 267.28C517.296 269.952 524.521 277.897 539.754 285.108C540.454 285.455 541.138 285.757 541.823 286.059C541.947 286.114 542.04 286.155 542.165 286.21C545.662 286.998 550.408 287.846 552.26 287.342C555.368 286.486 552.977 281.355 546.553 276.973C540.129 272.59 516.974 265.771 516.974 265.771C516.974 265.771 541.148 269.869 554.356 278.188C561.789 282.902 564.895 286.274 566.204 288.361C566.059 288.108 567.293 286.048 567.411 285.798C568.338 283.829 568.907 283.099 567.604 281.24C566.761 280 565.889 278.822 564.849 277.76C563.149 276.028 561.088 274.741 559.042 273.423C562.687 273.899 566.142 275.574 568.738 278.116C568.895 278.261 569.068 278.451 569.315 278.485C569.455 278.508 569.592 278.456 569.73 278.403C571.515 277.643 572.427 275.705 573.208 274.049C573.914 272.549 574.77 271.529 575.696 270.202C577.878 267.163 577.858 262.662 576.783 259.281C576.536 258.53 576.212 257.783 575.631 257.263C576.549 257.706 577.153 258.576 577.71 259.388C578.728 260.894 579.625 262.498 580.079 264.246C580.686 266.703 579.946 269.472 578.871 271.754C577.715 274.527 576.971 277.861 578.457 278.932C578.676 279.104 579.192 279.445 580.187 279.884C584.198 281.654 590.656 282.616 595.263 280.571C598.023 279.336 599.991 277.071 601.092 273.857C604.493 263.845 602.06 256.731 600.745 252.904C600.268 251.524 599.939 250.548 599.905 249.665C599.895 248.49 600.41 247.396 601.087 245.959C602.664 242.691 605.036 237.735 601.844 229.759C598.491 221.409 590.243 216.75 585.317 213.973C583.539 212.962 582.261 212.247 581.444 211.509C579.921 210.12 579.658 207.965 579.358 205.493C578.896 201.929 578.322 197.486 574.063 193.53C572.413 192.009 570.087 190.568 567.32 189.347C558.955 185.656 548.386 184.73 543.76 187.294C537.171 190.918 534.958 195.377 534.943 195.408C534.575 196.19 533.816 196.685 532.97 196.727C532.893 196.731 525.249 197.171 521.118 202.671C516.629 208.693 516.307 216.554 515.289 223.579Z" fill="#0D0D0D"/>
<path d="M566.089 246.44C568.83 245.905 571.287 244.37 573.943 243.455C579.332 241.621 585.536 242.464 590.045 245.71C581.854 246.685 573.694 247.674 565.503 248.649C563.59 248.867 562.248 248.35 560.978 247.523L557.608 244.743C560.056 246.356 563.178 247.015 566.089 246.44Z" fill="#0D0D0D"/>
<path d="M557.472 244.422C557.362 244.335 557.235 244.203 557.125 244.116L557.614 244.523C557.551 244.495 557.535 244.45 557.472 244.422Z" fill="#0D0D0D"/>
<path d="M549.804 187.257C553.918 186.58 558.162 187.698 561.613 189.862C562.05 190.131 562.504 190.444 562.73 190.921C562.956 191.399 562.923 192.026 562.499 192.368C559.116 191.177 555.131 190.703 551.92 192.495C550.642 193.215 549.601 194.228 548.561 195.242C547.384 196.384 546.207 197.526 545.031 198.668C544.352 199.312 543.704 199.97 542.849 200.348C542.026 200.74 540.997 200.852 540.232 200.402C539.53 199.979 539.158 199.173 539.048 198.369C538.848 196.959 539.264 195.519 539.898 194.251C541.819 190.492 545.691 187.934 549.804 187.257Z" fill="#4D4D4D"/>
<path d="M584.01 270.125C584.394 270.106 584.752 270.302 585.079 270.484C586.992 271.517 590.392 273.055 592.535 271.927C592.733 271.826 592.899 271.711 593.08 271.565C594.59 270.271 595.073 267.733 597.523 268.023C597.801 268.07 598.11 268.131 598.353 268.013C598.596 267.894 598.76 267.627 598.877 267.377C599.258 266.49 600.089 260.186 601.858 263.755C602.356 264.767 602.404 266.258 602.381 267.341C602.388 269.793 601.688 272.235 600.334 274.314C597.968 277.905 593.667 280.19 589.423 280.127C586.963 280.096 584.47 279.26 582.968 277.354C581.467 275.447 581.34 272.452 583.039 270.676C583.324 270.388 583.627 270.144 584.01 270.125Z" fill="#4D4D4D"/>
<mask id="path-16-outside-3_779_1047" maskUnits="userSpaceOnUse" x="266.339" y="264.889" width="298" height="92" fill="black">
<rect fill="white" x="266.339" y="264.889" width="298" height="92"/>
<path d="M270.875 269.467H289.386C304.935 269.467 309.994 276.131 309.994 291.68V352.889H287.781V295.012C287.781 292.667 286.794 291.556 284.573 291.556H270.875V269.467ZM378.524 352.889H365.813C350.881 352.889 339.898 347.706 332.247 339.314C325.583 332.033 321.511 322.161 321.511 311.178C321.511 299.084 326.694 288.101 334.962 280.45C342.366 273.662 352.362 269.467 365.813 269.467H378.524C391.975 269.467 401.971 273.662 409.375 280.45C417.643 288.101 422.826 299.084 422.826 311.178C422.826 322.161 418.754 332.033 412.09 339.314C404.439 347.706 393.456 352.889 378.524 352.889ZM378.524 291.556H365.813C358.285 291.556 353.596 293.654 350.017 296.986C346.192 300.565 343.847 305.748 343.847 311.301C343.847 316.361 345.822 321.05 349.03 324.505C352.609 328.454 357.915 330.923 365.813 330.923H378.524C386.422 330.923 391.728 328.454 395.307 324.505C398.516 321.05 400.49 316.361 400.49 311.301C400.49 305.748 398.145 300.565 394.32 296.986C390.741 293.654 386.052 291.556 378.524 291.556ZM429.56 331.169H452.019V352.889H429.56V331.169ZM515.547 352.889H502.836C487.904 352.889 476.921 347.706 469.27 339.314C462.606 332.033 458.534 322.161 458.534 311.178C458.534 299.084 463.717 288.101 471.985 280.45C479.389 273.662 489.385 269.467 502.836 269.467H515.547C528.998 269.467 538.994 273.662 546.399 280.45C554.667 288.101 559.85 299.084 559.85 311.178C559.85 322.161 555.777 332.033 549.113 339.314C541.462 347.706 530.479 352.889 515.547 352.889ZM515.547 291.556H502.836C495.309 291.556 490.619 293.654 487.041 296.986C483.215 300.565 480.87 305.748 480.87 311.301C480.87 316.361 482.845 321.05 486.053 324.505C489.632 328.454 494.939 330.923 502.836 330.923H515.547C523.445 330.923 528.752 328.454 532.33 324.505C535.539 321.05 537.513 316.361 537.513 311.301C537.513 305.748 535.169 300.565 531.343 296.986C527.764 293.654 523.075 291.556 515.547 291.556Z"/>
</mask>
<path d="M270.875 269.467H289.386C304.935 269.467 309.994 276.131 309.994 291.68V352.889H287.781V295.012C287.781 292.667 286.794 291.556 284.573 291.556H270.875V269.467ZM378.524 352.889H365.813C350.881 352.889 339.898 347.706 332.247 339.314C325.583 332.033 321.511 322.161 321.511 311.178C321.511 299.084 326.694 288.101 334.962 280.45C342.366 273.662 352.362 269.467 365.813 269.467H378.524C391.975 269.467 401.971 273.662 409.375 280.45C417.643 288.101 422.826 299.084 422.826 311.178C422.826 322.161 418.754 332.033 412.09 339.314C404.439 347.706 393.456 352.889 378.524 352.889ZM378.524 291.556H365.813C358.285 291.556 353.596 293.654 350.017 296.986C346.192 300.565 343.847 305.748 343.847 311.301C343.847 316.361 345.822 321.05 349.03 324.505C352.609 328.454 357.915 330.923 365.813 330.923H378.524C386.422 330.923 391.728 328.454 395.307 324.505C398.516 321.05 400.49 316.361 400.49 311.301C400.49 305.748 398.145 300.565 394.32 296.986C390.741 293.654 386.052 291.556 378.524 291.556ZM429.56 331.169H452.019V352.889H429.56V331.169ZM515.547 352.889H502.836C487.904 352.889 476.921 347.706 469.27 339.314C462.606 332.033 458.534 322.161 458.534 311.178C458.534 299.084 463.717 288.101 471.985 280.45C479.389 273.662 489.385 269.467 502.836 269.467H515.547C528.998 269.467 538.994 273.662 546.399 280.45C554.667 288.101 559.85 299.084 559.85 311.178C559.85 322.161 555.777 332.033 549.113 339.314C541.462 347.706 530.479 352.889 515.547 352.889ZM515.547 291.556H502.836C495.309 291.556 490.619 293.654 487.041 296.986C483.215 300.565 480.87 305.748 480.87 311.301C480.87 316.361 482.845 321.05 486.053 324.505C489.632 328.454 494.939 330.923 502.836 330.923H515.547C523.445 330.923 528.752 328.454 532.33 324.505C535.539 321.05 537.513 316.361 537.513 311.301C537.513 305.748 535.169 300.565 531.343 296.986C527.764 293.654 523.075 291.556 515.547 291.556Z" fill="#125128"/>
<path d="M270.875 269.467V265.518H266.926V269.467H270.875ZM309.994 352.889V356.838H313.943V352.889H309.994ZM287.781 352.889H283.833V356.838H287.781V352.889ZM270.875 291.556H266.926V295.505H270.875V291.556ZM270.875 269.467V273.416H289.386V269.467V265.518H270.875V269.467ZM289.386 269.467V273.416C296.721 273.416 300.471 275.005 302.57 277.366C304.775 279.847 306.045 284.139 306.045 291.68H309.994H313.943C313.943 283.671 312.684 276.857 308.473 272.119C304.154 267.261 297.599 265.518 289.386 265.518V269.467ZM309.994 291.68H306.045V352.889H309.994H313.943V291.68H309.994ZM309.994 352.889V348.94H287.781V352.889V356.838H309.994V352.889ZM287.781 352.889H291.73V295.012H287.781H283.833V352.889H287.781ZM287.781 295.012H291.73C291.73 293.39 291.405 291.351 289.918 289.733C288.365 288.043 286.292 287.607 284.573 287.607V291.556V295.505C284.815 295.505 284.832 295.537 284.715 295.496C284.569 295.446 284.326 295.32 284.102 295.077C283.887 294.842 283.816 294.636 283.803 294.594C283.796 294.571 283.833 294.686 283.833 295.012H287.781ZM284.573 291.556V287.607H270.875V291.556V295.505H284.573V291.556ZM270.875 291.556H274.824V269.467H270.875H266.926V291.556H270.875ZM332.247 339.314L335.165 336.653L335.16 336.648L332.247 339.314ZM334.962 280.45L332.293 277.539L332.287 277.545L332.28 277.551L334.962 280.45ZM409.375 280.45L412.057 277.551L412.051 277.545L412.044 277.539L409.375 280.45ZM412.09 339.314L409.177 336.648L409.172 336.653L412.09 339.314ZM350.017 296.986L347.326 294.096L347.32 294.102L350.017 296.986ZM349.03 324.505L351.956 321.854L351.94 321.836L351.924 321.818L349.03 324.505ZM395.307 324.505L392.413 321.818L392.397 321.836L392.381 321.854L395.307 324.505ZM394.32 296.986L397.018 294.102L397.011 294.096L394.32 296.986ZM378.524 352.889V348.94H365.813V352.889V356.838H378.524V352.889ZM365.813 352.889V348.94C351.891 348.94 342.002 344.152 335.165 336.653L332.247 339.314L329.329 341.975C337.794 351.259 349.872 356.838 365.813 356.838V352.889ZM332.247 339.314L335.16 336.648C329.159 330.091 325.46 321.169 325.46 311.178H321.511H317.562C317.562 323.153 322.007 333.975 329.334 341.98L332.247 339.314ZM321.511 311.178H325.46C325.46 300.23 330.149 290.284 337.644 283.348L334.962 280.45L332.28 277.551C323.238 285.918 317.562 297.938 317.562 311.178H321.511ZM334.962 280.45L337.63 283.361C344.244 277.298 353.263 273.416 365.813 273.416V269.467V265.518C351.461 265.518 340.488 270.027 332.293 277.539L334.962 280.45ZM365.813 269.467V273.416H378.524V269.467V265.518H365.813V269.467ZM378.524 269.467V273.416C391.075 273.416 400.093 277.298 406.707 283.361L409.375 280.45L412.044 277.539C403.849 270.027 392.876 265.518 378.524 265.518V269.467ZM409.375 280.45L406.693 283.348C414.188 290.284 418.877 300.23 418.877 311.178H422.826H426.775C426.775 297.938 421.099 285.918 412.057 277.551L409.375 280.45ZM422.826 311.178H418.877C418.877 321.169 415.178 330.091 409.177 336.648L412.09 339.314L415.003 341.98C422.33 333.975 426.775 323.153 426.775 311.178H422.826ZM412.09 339.314L409.172 336.653C402.335 344.152 392.447 348.94 378.524 348.94V352.889V356.838C394.465 356.838 406.543 351.259 415.008 341.975L412.09 339.314ZM378.524 291.556V287.607H365.813V291.556V295.505H378.524V291.556ZM365.813 291.556V287.607C357.419 287.607 351.727 289.998 347.326 294.096L350.017 296.986L352.708 299.876C355.465 297.31 359.152 295.505 365.813 295.505V291.556ZM350.017 296.986L347.32 294.102C342.706 298.418 339.898 304.641 339.898 311.301H343.847H347.796C347.796 306.855 349.678 302.711 352.715 299.87L350.017 296.986ZM343.847 311.301H339.898C339.898 317.393 342.274 323.033 346.136 327.193L349.03 324.505L351.924 321.818C349.369 319.067 347.796 315.328 347.796 311.301H343.847ZM349.03 324.505L346.104 327.157C350.561 332.075 357.009 334.871 365.813 334.871V330.923V326.974C358.821 326.974 354.657 324.834 351.956 321.854L349.03 324.505ZM365.813 330.923V334.871H378.524V330.923V326.974H365.813V330.923ZM378.524 330.923V334.871C387.328 334.871 393.776 332.075 398.233 327.157L395.307 324.505L392.381 321.854C389.68 324.834 385.516 326.974 378.524 326.974V330.923ZM395.307 324.505L398.201 327.193C402.063 323.033 404.439 317.393 404.439 311.301H400.49H396.541C396.541 315.328 394.968 319.067 392.413 321.818L395.307 324.505ZM400.49 311.301H404.439C404.439 304.641 401.631 298.418 397.018 294.102L394.32 296.986L391.622 299.87C394.659 302.711 396.541 306.855 396.541 311.301H400.49ZM394.32 296.986L397.011 294.096C392.61 289.998 386.918 287.607 378.524 287.607V291.556V295.505C385.185 295.505 388.872 297.31 391.629 299.876L394.32 296.986ZM429.56 331.169V327.22H425.611V331.169H429.56ZM452.019 331.169H455.968V327.22H452.019V331.169ZM452.019 352.889V356.838H455.968V352.889H452.019ZM429.56 352.889H425.611V356.838H429.56V352.889ZM429.56 331.169V335.118H452.019V331.169V327.22H429.56V331.169ZM452.019 331.169H448.071V352.889H452.019H455.968V331.169H452.019ZM452.019 352.889V348.94H429.56V352.889V356.838H452.019V352.889ZM429.56 352.889H433.509V331.169H429.56H425.611V352.889H429.56ZM469.27 339.314L472.188 336.653L472.183 336.648L469.27 339.314ZM471.985 280.45L469.317 277.539L469.31 277.545L469.303 277.551L471.985 280.45ZM546.399 280.45L549.081 277.551L549.074 277.545L549.067 277.539L546.399 280.45ZM549.113 339.314L546.2 336.648L546.195 336.653L549.113 339.314ZM487.041 296.986L484.35 294.096L484.343 294.102L487.041 296.986ZM486.053 324.505L488.979 321.854L488.963 321.836L488.947 321.818L486.053 324.505ZM532.33 324.505L529.437 321.818L529.42 321.836L529.404 321.854L532.33 324.505ZM531.343 296.986L534.041 294.102L534.034 294.096L531.343 296.986ZM515.547 352.889V348.94H502.836V352.889V356.838H515.547V352.889ZM502.836 352.889V348.94C488.914 348.94 479.026 344.152 472.188 336.653L469.27 339.314L466.352 341.975C474.817 351.259 486.895 356.838 502.836 356.838V352.889ZM469.27 339.314L472.183 336.648C466.182 330.091 462.483 321.169 462.483 311.178H458.534H454.585C454.585 323.153 459.03 333.975 466.357 341.98L469.27 339.314ZM458.534 311.178H462.483C462.483 300.23 467.172 290.284 474.667 283.348L471.985 280.45L469.303 277.551C460.262 285.918 454.585 297.938 454.585 311.178H458.534ZM471.985 280.45L474.654 283.361C481.268 277.298 490.286 273.416 502.836 273.416V269.467V265.518C488.485 265.518 477.511 270.027 469.317 277.539L471.985 280.45ZM502.836 269.467V273.416H515.547V269.467V265.518H502.836V269.467ZM515.547 269.467V273.416C528.098 273.416 537.116 277.298 543.73 283.361L546.399 280.45L549.067 277.539C540.872 270.027 529.899 265.518 515.547 265.518V269.467ZM546.399 280.45L543.716 283.348C551.211 290.284 555.901 300.23 555.901 311.178H559.85H563.799C563.799 297.938 558.122 285.918 549.081 277.551L546.399 280.45ZM559.85 311.178H555.901C555.901 321.169 552.201 330.091 546.2 336.648L549.113 339.314L552.026 341.98C559.353 333.975 563.799 323.153 563.799 311.178H559.85ZM549.113 339.314L546.195 336.653C539.358 344.152 529.47 348.94 515.547 348.94V352.889V356.838C531.489 356.838 543.567 351.259 552.032 341.975L549.113 339.314ZM515.547 291.556V287.607H502.836V291.556V295.505H515.547V291.556ZM502.836 291.556V287.607C494.442 287.607 488.751 289.998 484.35 294.096L487.041 296.986L489.731 299.876C492.488 297.31 496.175 295.505 502.836 295.505V291.556ZM487.041 296.986L484.343 294.102C479.729 298.418 476.921 304.641 476.921 311.301H480.87H484.819C484.819 306.855 486.701 302.711 489.738 299.87L487.041 296.986ZM480.87 311.301H476.921C476.921 317.393 479.297 323.033 483.16 327.193L486.053 324.505L488.947 321.818C486.392 319.067 484.819 315.328 484.819 311.301H480.87ZM486.053 324.505L483.127 327.157C487.584 332.075 494.032 334.871 502.836 334.871V330.923V326.974C495.845 326.974 491.68 324.834 488.979 321.854L486.053 324.505ZM502.836 330.923V334.871H515.547V330.923V326.974H502.836V330.923ZM515.547 330.923V334.871C524.351 334.871 530.8 332.075 535.256 327.157L532.33 324.505L529.404 321.854C526.703 324.834 522.539 326.974 515.547 326.974V330.923ZM532.33 324.505L535.224 327.193C539.086 323.033 541.462 317.393 541.462 311.301H537.513H533.564C533.564 315.328 531.991 319.067 529.437 321.818L532.33 324.505ZM537.513 311.301H541.462C541.462 304.641 538.655 298.418 534.041 294.102L531.343 296.986L528.645 299.87C531.683 302.711 533.564 306.855 533.564 311.301H537.513ZM531.343 296.986L534.034 294.096C529.633 289.998 523.941 287.607 515.547 287.607V291.556V295.505C522.208 295.505 525.896 297.31 528.652 299.876L531.343 296.986Z" fill="black" mask="url(#path-16-outside-3_779_1047)"/>
<mask id="path-18-outside-4_779_1047" maskUnits="userSpaceOnUse" x="270.18" y="257.978" width="298" height="92" fill="black">
<rect fill="white" x="270.18" y="257.978" width="298" height="92"/>
<path d="M274.716 262.556H293.227C308.776 262.556 313.836 269.219 313.836 284.769V345.978H291.623V288.1C291.623 285.756 290.636 284.645 288.414 284.645H274.716V262.556ZM382.365 345.978H369.655C354.723 345.978 343.74 340.795 336.088 332.403C329.425 325.122 325.352 315.25 325.352 304.267C325.352 292.173 330.535 281.19 338.803 273.539C346.208 266.751 356.203 262.556 369.655 262.556H382.365C395.817 262.556 405.812 266.751 413.217 273.539C421.485 281.19 426.668 292.173 426.668 304.267C426.668 315.25 422.596 325.122 415.932 332.403C408.281 340.795 397.297 345.978 382.365 345.978ZM382.365 284.645H369.655C362.127 284.645 357.438 286.743 353.859 290.075C350.033 293.654 347.689 298.837 347.689 304.39C347.689 309.45 349.663 314.139 352.872 317.594C356.45 321.543 361.757 324.011 369.655 324.011H382.365C390.263 324.011 395.57 321.543 399.149 317.594C402.357 314.139 404.332 309.45 404.332 304.39C404.332 298.837 401.987 293.654 398.161 290.075C394.583 286.743 389.893 284.645 382.365 284.645ZM433.401 324.258H455.861V345.978H433.401V324.258ZM519.389 345.978H506.678C491.746 345.978 480.763 340.795 473.112 332.403C466.448 325.122 462.375 315.25 462.375 304.267C462.375 292.173 467.558 281.19 475.827 273.539C483.231 266.751 493.227 262.556 506.678 262.556H519.389C532.84 262.556 542.836 266.751 550.24 273.539C558.508 281.19 563.691 292.173 563.691 304.267C563.691 315.25 559.619 325.122 552.955 332.403C545.304 340.795 534.321 345.978 519.389 345.978ZM519.389 284.645H506.678C499.15 284.645 494.461 286.743 490.882 290.075C487.056 293.654 484.712 298.837 484.712 304.39C484.712 309.45 486.686 314.139 489.895 317.594C493.474 321.543 498.78 324.011 506.678 324.011H519.389C527.287 324.011 532.593 321.543 536.172 317.594C539.38 314.139 541.355 309.45 541.355 304.39C541.355 298.837 539.01 293.654 535.185 290.075C531.606 286.743 526.916 284.645 519.389 284.645Z"/>
</mask>
<path d="M274.716 262.556H293.227C308.776 262.556 313.836 269.219 313.836 284.769V345.978H291.623V288.1C291.623 285.756 290.636 284.645 288.414 284.645H274.716V262.556ZM382.365 345.978H369.655C354.723 345.978 343.74 340.795 336.088 332.403C329.425 325.122 325.352 315.25 325.352 304.267C325.352 292.173 330.535 281.19 338.803 273.539C346.208 266.751 356.203 262.556 369.655 262.556H382.365C395.817 262.556 405.812 266.751 413.217 273.539C421.485 281.19 426.668 292.173 426.668 304.267C426.668 315.25 422.596 325.122 415.932 332.403C408.281 340.795 397.297 345.978 382.365 345.978ZM382.365 284.645H369.655C362.127 284.645 357.438 286.743 353.859 290.075C350.033 293.654 347.689 298.837 347.689 304.39C347.689 309.45 349.663 314.139 352.872 317.594C356.45 321.543 361.757 324.011 369.655 324.011H382.365C390.263 324.011 395.57 321.543 399.149 317.594C402.357 314.139 404.332 309.45 404.332 304.39C404.332 298.837 401.987 293.654 398.161 290.075C394.583 286.743 389.893 284.645 382.365 284.645ZM433.401 324.258H455.861V345.978H433.401V324.258ZM519.389 345.978H506.678C491.746 345.978 480.763 340.795 473.112 332.403C466.448 325.122 462.375 315.25 462.375 304.267C462.375 292.173 467.558 281.19 475.827 273.539C483.231 266.751 493.227 262.556 506.678 262.556H519.389C532.84 262.556 542.836 266.751 550.24 273.539C558.508 281.19 563.691 292.173 563.691 304.267C563.691 315.25 559.619 325.122 552.955 332.403C545.304 340.795 534.321 345.978 519.389 345.978ZM519.389 284.645H506.678C499.15 284.645 494.461 286.743 490.882 290.075C487.056 293.654 484.712 298.837 484.712 304.39C484.712 309.45 486.686 314.139 489.895 317.594C493.474 321.543 498.78 324.011 506.678 324.011H519.389C527.287 324.011 532.593 321.543 536.172 317.594C539.38 314.139 541.355 309.45 541.355 304.39C541.355 298.837 539.01 293.654 535.185 290.075C531.606 286.743 526.916 284.645 519.389 284.645Z" fill="url(#paint2_linear_779_1047)"/>
<path d="M274.716 262.556V258.607H270.767V262.556H274.716ZM313.836 345.978V349.927H317.785V345.978H313.836ZM291.623 345.978H287.674V349.927H291.623V345.978ZM274.716 284.645H270.767V288.594H274.716V284.645ZM274.716 262.556V266.505H293.227V262.556V258.607H274.716V262.556ZM293.227 262.556V266.505C300.563 266.505 304.312 268.093 306.411 270.455C308.616 272.936 309.887 277.228 309.887 284.769H313.836H317.785C317.785 276.76 316.526 269.946 312.314 265.208C307.996 260.35 301.441 258.607 293.227 258.607V262.556ZM313.836 284.769H309.887V345.978H313.836H317.785V284.769H313.836ZM313.836 345.978V342.029H291.623V345.978V349.927H313.836V345.978ZM291.623 345.978H295.572V288.1H291.623H287.674V345.978H291.623ZM291.623 288.1H295.572C295.572 286.479 295.246 284.44 293.759 282.822C292.207 281.132 290.134 280.696 288.414 280.696V284.645V288.594C288.656 288.594 288.674 288.626 288.556 288.585C288.41 288.535 288.168 288.409 287.944 288.165C287.729 287.931 287.657 287.725 287.645 287.683C287.638 287.66 287.674 287.775 287.674 288.1H291.623ZM288.414 284.645V280.696H274.716V284.645V288.594H288.414V284.645ZM274.716 284.645H278.665V262.556H274.716H270.767V284.645H274.716ZM336.088 332.403L339.007 329.742L339.001 329.737L336.088 332.403ZM338.803 273.539L336.135 270.628L336.128 270.634L336.121 270.64L338.803 273.539ZM413.217 273.539L415.899 270.64L415.892 270.634L415.885 270.628L413.217 273.539ZM415.932 332.403L413.019 329.737L413.014 329.742L415.932 332.403ZM353.859 290.075L351.168 287.185L351.161 287.191L353.859 290.075ZM352.872 317.594L355.798 314.943L355.782 314.925L355.765 314.907L352.872 317.594ZM399.149 317.594L396.255 314.907L396.238 314.925L396.222 314.943L399.149 317.594ZM398.161 290.075L400.859 287.191L400.852 287.185L398.161 290.075ZM382.365 345.978V342.029H369.655V345.978V349.927H382.365V345.978ZM369.655 345.978V342.029C355.732 342.029 345.844 337.241 339.007 329.742L336.088 332.403L333.17 335.064C341.635 344.348 353.713 349.927 369.655 349.927V345.978ZM336.088 332.403L339.001 329.737C333 323.18 329.301 314.257 329.301 304.267H325.352H321.403C321.403 316.242 325.849 327.064 333.175 335.069L336.088 332.403ZM325.352 304.267H329.301C329.301 293.319 333.991 283.373 341.485 276.437L338.803 273.539L336.121 270.64C327.08 279.007 321.403 291.026 321.403 304.267H325.352ZM338.803 273.539L341.472 276.45C348.086 270.387 357.104 266.505 369.655 266.505V262.556V258.607C355.303 258.607 344.33 263.116 336.135 270.628L338.803 273.539ZM369.655 262.556V266.505H382.365V262.556V258.607H369.655V262.556ZM382.365 262.556V266.505C394.916 266.505 403.934 270.387 410.548 276.45L413.217 273.539L415.885 270.628C407.691 263.116 396.717 258.607 382.365 258.607V262.556ZM413.217 273.539L410.535 276.437C418.029 283.373 422.719 293.319 422.719 304.267H426.668H430.617C430.617 291.026 424.94 279.007 415.899 270.64L413.217 273.539ZM426.668 304.267H422.719C422.719 314.257 419.02 323.18 413.019 329.737L415.932 332.403L418.845 335.069C426.171 327.064 430.617 316.242 430.617 304.267H426.668ZM415.932 332.403L413.014 329.742C406.176 337.241 396.288 342.029 382.365 342.029V345.978V349.927C398.307 349.927 410.385 344.348 418.85 335.064L415.932 332.403ZM382.365 284.645V280.696H369.655V284.645V288.594H382.365V284.645ZM369.655 284.645V280.696C361.26 280.696 355.569 283.087 351.168 287.185L353.859 290.075L356.55 292.965C359.306 290.399 362.993 288.594 369.655 288.594V284.645ZM353.859 290.075L351.161 287.191C346.547 291.507 343.74 297.73 343.74 304.39H347.689H351.637C351.637 299.943 353.519 295.8 356.557 292.959L353.859 290.075ZM347.689 304.39H343.74C343.74 310.482 346.115 316.122 349.978 320.281L352.872 317.594L355.765 314.907C353.211 312.156 351.637 308.417 351.637 304.39H347.689ZM352.872 317.594L349.945 320.246C354.402 325.164 360.85 327.96 369.655 327.96V324.011V320.062C362.663 320.062 358.498 317.923 355.798 314.943L352.872 317.594ZM369.655 324.011V327.96H382.365V324.011V320.062H369.655V324.011ZM382.365 324.011V327.96C391.17 327.96 397.618 325.164 402.075 320.246L399.149 317.594L396.222 314.943C393.522 317.923 389.357 320.062 382.365 320.062V324.011ZM399.149 317.594L402.042 320.281C405.905 316.122 408.281 310.482 408.281 304.39H404.332H400.383C400.383 308.417 398.81 312.156 396.255 314.907L399.149 317.594ZM404.332 304.39H408.281C408.281 297.73 405.473 291.507 400.859 287.191L398.161 290.075L395.464 292.959C398.501 295.8 400.383 299.943 400.383 304.39H404.332ZM398.161 290.075L400.852 287.185C396.451 283.087 390.76 280.696 382.365 280.696V284.645V288.594C389.027 288.594 392.714 290.399 395.47 292.965L398.161 290.075ZM433.401 324.258V320.309H429.452V324.258H433.401ZM455.861 324.258H459.81V320.309H455.861V324.258ZM455.861 345.978V349.927H459.81V345.978H455.861ZM433.401 345.978H429.452V349.927H433.401V345.978ZM433.401 324.258V328.207H455.861V324.258V320.309H433.401V324.258ZM455.861 324.258H451.912V345.978H455.861H459.81V324.258H455.861ZM455.861 345.978V342.029H433.401V345.978V349.927H455.861V345.978ZM433.401 345.978H437.35V324.258H433.401H429.452V345.978H433.401ZM473.112 332.403L476.03 329.742L476.025 329.737L473.112 332.403ZM475.827 273.539L473.158 270.628L473.151 270.634L473.145 270.64L475.827 273.539ZM550.24 273.539L552.922 270.64L552.915 270.634L552.908 270.628L550.24 273.539ZM552.955 332.403L550.042 329.737L550.037 329.742L552.955 332.403ZM490.882 290.075L488.191 287.185L488.184 287.191L490.882 290.075ZM489.895 317.594L492.821 314.943L492.805 314.925L492.789 314.907L489.895 317.594ZM536.172 317.594L533.278 314.907L533.262 314.925L533.246 314.943L536.172 317.594ZM535.185 290.075L537.882 287.191L537.875 287.185L535.185 290.075ZM519.389 345.978V342.029H506.678V345.978V349.927H519.389V345.978ZM506.678 345.978V342.029C492.755 342.029 482.867 337.241 476.03 329.742L473.112 332.403L470.194 335.064C478.659 344.348 490.736 349.927 506.678 349.927V345.978ZM473.112 332.403L476.025 329.737C470.024 323.18 466.324 314.257 466.324 304.267H462.375H458.426C458.426 316.242 462.872 327.064 470.199 335.069L473.112 332.403ZM462.375 304.267H466.324C466.324 293.319 471.014 283.373 478.509 276.437L475.827 273.539L473.145 270.64C464.103 279.007 458.426 291.026 458.426 304.267H462.375ZM475.827 273.539L478.495 276.45C485.109 270.387 494.127 266.505 506.678 266.505V262.556V258.607C492.326 258.607 481.353 263.116 473.158 270.628L475.827 273.539ZM506.678 262.556V266.505H519.389V262.556V258.607H506.678V262.556ZM519.389 262.556V266.505C531.939 266.505 540.958 270.387 547.572 276.45L550.24 273.539L552.908 270.628C544.714 263.116 533.74 258.607 519.389 258.607V262.556ZM550.24 273.539L547.558 276.437C555.053 283.373 559.742 293.319 559.742 304.267H563.691H567.64C567.64 291.026 561.964 279.007 552.922 270.64L550.24 273.539ZM563.691 304.267H559.742C559.742 314.257 556.043 323.18 550.042 329.737L552.955 332.403L555.868 335.069C563.195 327.064 567.64 316.242 567.64 304.267H563.691ZM552.955 332.403L550.037 329.742C543.199 337.241 533.311 342.029 519.389 342.029V345.978V349.927C535.33 349.927 547.408 344.348 555.873 335.064L552.955 332.403ZM519.389 284.645V280.696H506.678V284.645V288.594H519.389V284.645ZM506.678 284.645V280.696C498.284 280.696 492.592 283.087 488.191 287.185L490.882 290.075L493.573 292.965C496.33 290.399 500.017 288.594 506.678 288.594V284.645ZM490.882 290.075L488.184 287.191C483.571 291.507 480.763 297.73 480.763 304.39H484.712H488.661C488.661 299.943 490.542 295.8 493.58 292.959L490.882 290.075ZM484.712 304.39H480.763C480.763 310.482 483.139 316.122 487.001 320.281L489.895 317.594L492.789 314.907C490.234 312.156 488.661 308.417 488.661 304.39H484.712ZM489.895 317.594L486.969 320.246C491.425 325.164 497.874 327.96 506.678 327.96V324.011V320.062C499.686 320.062 495.522 317.923 492.821 314.943L489.895 317.594ZM506.678 324.011V327.96H519.389V324.011V320.062H506.678V324.011ZM519.389 324.011V327.96C528.193 327.96 534.641 325.164 539.098 320.246L536.172 317.594L533.246 314.943C530.545 317.923 526.38 320.062 519.389 320.062V324.011ZM536.172 317.594L539.066 320.281C542.928 316.122 545.304 310.482 545.304 304.39H541.355H537.406C537.406 308.417 535.833 312.156 533.278 314.907L536.172 317.594ZM541.355 304.39H545.304C545.304 297.73 542.496 291.507 537.882 287.191L535.185 290.075L532.487 292.959C535.524 295.8 537.406 299.943 537.406 304.39H541.355ZM535.185 290.075L537.875 287.185C533.475 283.087 527.783 280.696 519.389 280.696V284.645V288.594C526.05 288.594 529.737 290.399 532.494 292.965L535.185 290.075Z" fill="black" mask="url(#path-18-outside-4_779_1047)"/>
<g opacity="0.3" filter="url(#filter2_f_779_1047)">
<rect x="289.19" y="269.932" width="267.543" height="77.0049" fill="#137735"/>
</g>
<defs>
<filter id="filter0_f_779_1047" x="60.1502" y="33.3706" width="441.297" height="177.704" filterUnits="userSpaceOnUse" color-interpolation-filters="sRGB">
<feFlood flood-opacity="0" result="BackgroundImageFix"/>
<feBlend mode="normal" in="SourceGraphic" in2="BackgroundImageFix" result="shape"/>
<feGaussianBlur stdDeviation="27.1492" result="effect1_foregroundBlur_779_1047"/>
</filter>
<filter id="filter1_f_779_1047" x="450.111" y="33.3706" width="339.611" height="177.704" filterUnits="userSpaceOnUse" color-interpolation-filters="sRGB">
<feFlood flood-opacity="0" result="BackgroundImageFix"/>
<feBlend mode="normal" in="SourceGraphic" in2="BackgroundImageFix" result="shape"/>
<feGaussianBlur stdDeviation="27.1492" result="effect1_foregroundBlur_779_1047"/>
</filter>
<filter id="filter2_f_779_1047" x="234.892" y="215.633" width="376.139" height="185.602" filterUnits="userSpaceOnUse" color-interpolation-filters="sRGB">
<feFlood flood-opacity="0" result="BackgroundImageFix"/>
<feBlend mode="normal" in="SourceGraphic" in2="BackgroundImageFix" result="shape"/>
<feGaussianBlur stdDeviation="27.1492" result="effect1_foregroundBlur_779_1047"/>
</filter>
<linearGradient id="paint0_linear_779_1047" x1="114.448" y1="122.222" x2="447.149" y2="122.222" gradientUnits="userSpaceOnUse">
<stop stop-color="#D9D9D9"/>
<stop offset="1" stop-color="#737373"/>
</linearGradient>
<linearGradient id="paint1_linear_779_1047" x1="504.409" y1="122.222" x2="735.424" y2="122.222" gradientUnits="userSpaceOnUse">
<stop stop-color="#D9D9D9"/>
<stop offset="1" stop-color="#737373"/>
</linearGradient>
<linearGradient id="paint2_linear_779_1047" x1="204.18" y1="303.498" x2="635.286" y2="303.498" gradientUnits="userSpaceOnUse">
<stop offset="0.875" stop-color="#32CA67"/>
<stop offset="0.932692" stop-color="#0A8A36"/>
</linearGradient>
</defs>
</svg>
